<svg width="1080" height="300" viewBox="0 0 1080 300" fill="none" xmlns="http://www.w3.org/2000/svg">
<rect width="1080" height="300" rx="16" fill="#D9D9D9"/>
<path d="M512.33 139.848V145.453H515.721V139.848H518.947V156.609H509.049V139.848H512.33ZM512.33 153.82H515.721V148.188H512.33V153.82ZM529.912 137.633V162.516H526.576V149.965H524.334V161.367H521.025V137.988H524.334V147.121H526.576V137.633H529.912ZM553.564 137.633V162.57H550.092V148.16H543.283V145.316H550.092V137.633H553.564ZM537.322 140.285V153.793C540.494 153.752 543.721 153.479 547.111 152.836L547.494 155.68C543.475 156.527 539.646 156.719 535.928 156.719H533.822V140.285H537.322Z" fill="black"/>
</svg>
