<svg width="473" height="409" viewBox="0 0 473 409" fill="none" xmlns="http://www.w3.org/2000/svg">
<g filter="url(#filter0_d_291_11)">
<rect x="20" y="129" width="240" height="260" rx="32" fill="white"/>
</g>
<path d="M94.375 333.869L94.3516 331.314L100.445 325.712C102.027 324.201 102.883 323.263 102.883 321.915C102.883 320.404 101.746 319.466 100.188 319.478C98.5938 319.466 97.5508 320.474 97.5625 322.103H94.2109C94.1992 318.787 96.6602 316.665 100.234 316.665C103.867 316.665 106.281 318.74 106.281 321.681C106.281 323.615 105.344 325.197 101.852 328.361L99.2734 330.869V330.962H106.516V333.869H94.375ZM126.18 314.72V330.048H123.18V314.72H126.18ZM108.648 321.447C108.648 318.318 111.203 316.068 114.484 316.08C117.754 316.068 120.309 318.318 120.32 321.447C120.309 324.622 117.754 326.861 114.484 326.861C111.203 326.861 108.648 324.622 108.648 321.447ZM111.578 321.447C111.555 323.228 112.809 324.259 114.484 324.259C116.102 324.259 117.355 323.228 117.367 321.447C117.355 319.712 116.102 318.669 114.484 318.681C112.809 318.669 111.555 319.712 111.578 321.447ZM111.883 335.65V328.501H114.906V333.259H126.742V335.65H111.883ZM130.562 327.4C130.586 322.982 131.781 319.302 133.938 316.173H135.719C134.137 318.482 132.66 323.228 132.648 327.4C132.66 331.583 134.137 336.318 135.719 338.65H133.938C131.781 335.509 130.586 331.83 130.562 327.4ZM137.781 330.4V328.665L145.422 316.9H148.023V328.548H150.391V330.4H148.023V333.869H146.008V330.4H137.781ZM140.055 328.548H146.008V319.572H145.797L140.055 328.408V328.548ZM158.734 334.103C154.973 334.103 152.793 330.939 152.805 325.384C152.793 319.876 154.996 316.665 158.734 316.665C162.461 316.665 164.664 319.876 164.664 325.384C164.664 330.939 162.496 334.103 158.734 334.103ZM154.844 325.384C154.855 329.779 156.273 332.228 158.734 332.228C161.184 332.228 162.613 329.779 162.602 325.384C162.613 320.99 161.172 318.505 158.734 318.494C156.297 318.505 154.855 320.99 154.844 325.384ZM172.656 338.908C169.574 338.908 167.488 337.56 167.266 335.205H169.375C169.645 336.505 170.852 337.15 172.656 337.15C174.836 337.15 176.172 336.201 176.172 334.103V331.525H176.008C175.574 332.228 174.766 333.669 172.305 333.681C169.211 333.669 166.891 331.337 166.891 327.33C166.891 323.415 169.129 320.978 172.328 320.978C174.801 320.978 175.598 322.478 176.055 323.158H176.219V321.142H178.188V334.22C178.176 337.501 175.762 338.908 172.656 338.908ZM168.93 327.4C168.93 330.037 170.172 331.876 172.586 331.876C174.918 331.876 176.207 330.201 176.219 327.4C176.207 324.669 174.953 322.783 172.586 322.783C170.137 322.783 168.93 324.833 168.93 327.4ZM185.828 327.4C185.805 331.83 184.609 335.509 182.453 338.65H180.672C182.254 336.318 183.73 331.583 183.742 327.4C183.73 323.228 182.254 318.482 180.672 316.173H182.453C184.609 319.302 185.805 322.982 185.828 327.4Z" fill="black"/>
<path d="M93 265.372V261.5H188V265.372C187.769 272.538 183.146 286.869 166.504 286.869H140.153H114.496C97.854 286.869 93.2311 272.538 93 265.372Z" fill="#E35D3C"/>
<path d="M93.6935 261.891H133.912" stroke="#BEBEBE" stroke-width="4" stroke-linecap="round" stroke-linejoin="round"/>
<path d="M93.6935 241.088H133.912" stroke="#BEBEBE" stroke-width="4" stroke-linecap="round" stroke-linejoin="round"/>
<path d="M93.6935 220.285H133.912" stroke="#BEBEBE" stroke-width="4" stroke-linecap="round" stroke-linejoin="round"/>
<path d="M93.6935 199.482H133.912" stroke="#BEBEBE" stroke-width="4" stroke-linecap="round" stroke-linejoin="round"/>
<path d="M93 178V265.372C93.2311 272.538 97.854 286.869 114.496 286.869C131.139 286.869 138.535 286.869 140.153 286.869M188 178V265.372C187.769 272.538 183.146 286.869 166.504 286.869H140.847" stroke="#BEBEBE" stroke-width="8" stroke-linecap="round" stroke-linejoin="round"/>
<g filter="url(#filter1_d_291_11)">
<rect x="213" y="20" width="240" height="260" rx="32" fill="white"/>
</g>
<path d="M278.074 225.103C274.348 225.103 271.676 223.052 271.605 220.087H275.168C275.227 221.353 276.457 222.185 278.098 222.197C279.785 222.185 280.992 221.248 280.98 219.876C280.992 218.494 279.762 217.521 277.77 217.509H276.199V214.908H277.77C279.445 214.908 280.617 213.994 280.605 212.658C280.617 211.357 279.621 210.466 278.121 210.478C276.621 210.466 275.391 211.31 275.332 212.611H271.957C272.016 209.693 274.641 207.665 278.121 207.665C281.66 207.665 284.016 209.763 284.004 212.447C284.016 214.345 282.691 215.693 280.793 216.033V216.173C283.289 216.478 284.66 217.99 284.637 220.111C284.66 223.017 281.906 225.103 278.074 225.103ZM293.707 225.103C289.453 225.103 286.887 221.939 286.887 216.384C286.887 210.841 289.477 207.665 293.707 207.665C297.938 207.665 300.527 210.841 300.527 216.384C300.527 221.962 297.949 225.103 293.707 225.103ZM290.496 216.384C290.473 220.298 291.738 222.197 293.707 222.197C295.676 222.197 296.93 220.298 296.918 216.384C296.93 212.505 295.664 210.56 293.707 210.548C291.75 210.56 290.496 212.505 290.496 216.384ZM320.121 205.72V221.048H317.121V205.72H320.121ZM302.59 212.447C302.59 209.318 305.145 207.068 308.426 207.08C311.695 207.068 314.25 209.318 314.262 212.447C314.25 215.623 311.695 217.861 308.426 217.861C305.145 217.861 302.59 215.623 302.59 212.447ZM305.52 212.447C305.496 214.228 306.75 215.259 308.426 215.259C310.043 215.259 311.297 214.228 311.309 212.447C311.297 210.712 310.043 209.669 308.426 209.681C306.75 209.669 305.496 210.712 305.52 212.447ZM305.824 226.65V219.501H308.848V224.259H320.684V226.65H305.824ZM324.504 218.4C324.527 213.982 325.723 210.302 327.879 207.173H329.66C328.078 209.482 326.602 214.228 326.59 218.4C326.602 222.583 328.078 227.318 329.66 229.65H327.879C325.723 226.509 324.527 222.83 324.504 218.4ZM337.676 225.103C334.617 225.103 332.297 223.216 332.168 220.603H334.207C334.359 222.115 335.836 223.24 337.676 223.251C339.879 223.24 341.473 221.634 341.473 219.501C341.473 217.298 339.82 215.669 337.535 215.658C336.105 215.634 334.992 216.08 334.371 217.181H332.332L333.527 207.9H342.715V209.775H335.285L334.652 214.744H334.816C335.578 214.158 336.715 213.759 337.91 213.759C341.145 213.759 343.523 216.15 343.535 219.455C343.523 222.736 341.062 225.103 337.676 225.103ZM352.02 225.103C348.258 225.103 346.078 221.939 346.09 216.384C346.078 210.876 348.281 207.665 352.02 207.665C355.746 207.665 357.949 210.876 357.949 216.384C357.949 221.939 355.781 225.103 352.02 225.103ZM348.129 216.384C348.141 220.779 349.559 223.228 352.02 223.228C354.469 223.228 355.898 220.779 355.887 216.384C355.898 211.99 354.457 209.505 352.02 209.494C349.582 209.505 348.141 211.99 348.129 216.384ZM366.316 225.103C362.555 225.103 360.375 221.939 360.387 216.384C360.375 210.876 362.578 207.665 366.316 207.665C370.043 207.665 372.246 210.876 372.246 216.384C372.246 221.939 370.078 225.103 366.316 225.103ZM362.426 216.384C362.438 220.779 363.855 223.228 366.316 223.228C368.766 223.228 370.195 220.779 370.184 216.384C370.195 211.99 368.754 209.505 366.316 209.494C363.879 209.505 362.438 211.99 362.426 216.384ZM380.238 229.908C377.156 229.908 375.07 228.56 374.848 226.205H376.957C377.227 227.505 378.434 228.15 380.238 228.15C382.418 228.15 383.754 227.201 383.754 225.103V222.525H383.59C383.156 223.228 382.348 224.669 379.887 224.681C376.793 224.669 374.473 222.337 374.473 218.33C374.473 214.415 376.711 211.978 379.91 211.978C382.383 211.978 383.18 213.478 383.637 214.158H383.801V212.142H385.77V225.22C385.758 228.501 383.344 229.908 380.238 229.908ZM376.512 218.4C376.512 221.037 377.754 222.876 380.168 222.876C382.5 222.876 383.789 221.201 383.801 218.4C383.789 215.669 382.535 213.783 380.168 213.783C377.719 213.783 376.512 215.833 376.512 218.4ZM393.41 218.4C393.387 222.83 392.191 226.509 390.035 229.65H388.254C389.836 227.318 391.312 222.583 391.324 218.4C391.312 214.228 389.836 209.482 388.254 207.173H390.035C392.191 210.302 393.387 213.982 393.41 218.4Z" fill="black"/>
<path d="M285 156.372V70H380V156.372C379.769 163.538 375.146 177.869 358.504 177.869H332.153H306.496C289.854 177.869 285.231 163.538 285 156.372Z" fill="#E35D3C"/>
<path d="M285.693 152.891H325.912" stroke="#BEBEBE" stroke-width="4" stroke-linecap="round" stroke-linejoin="round"/>
<path d="M285.693 132.088H325.912" stroke="#BEBEBE" stroke-width="4" stroke-linecap="round" stroke-linejoin="round"/>
<path d="M285.693 111.285H325.912" stroke="#BEBEBE" stroke-width="4" stroke-linecap="round" stroke-linejoin="round"/>
<path d="M285.693 90.4818H325.912" stroke="#BEBEBE" stroke-width="4" stroke-linecap="round" stroke-linejoin="round"/>
<path d="M285 69V156.372C285.231 163.538 289.854 177.869 306.496 177.869C323.139 177.869 330.535 177.869 332.153 177.869M380 69V156.372C379.769 163.538 375.146 177.869 358.504 177.869H332.847" stroke="#BEBEBE" stroke-width="8" stroke-linecap="round" stroke-linejoin="round"/>
<defs>
<filter id="filter0_d_291_11" x="0" y="109" width="280" height="300" filterUnits="userSpaceOnUse" color-interpolation-filters="sRGB">
<feFlood flood-opacity="0" result="BackgroundImageFix"/>
<feColorMatrix in="SourceAlpha" type="matrix" values="0 0 0 0 0 0 0 0 0 0 0 0 0 0 0 0 0 0 127 0" result="hardAlpha"/>
<feOffset/>
<feGaussianBlur stdDeviation="10"/>
<feComposite in2="hardAlpha" operator="out"/>
<feColorMatrix type="matrix" values="0 0 0 0 0 0 0 0 0 0 0 0 0 0 0 0 0 0 0.1 0"/>
<feBlend mode="normal" in2="BackgroundImageFix" result="effect1_dropShadow_291_11"/>
<feBlend mode="normal" in="SourceGraphic" in2="effect1_dropShadow_291_11" result="shape"/>
</filter>
<filter id="filter1_d_291_11" x="193" y="0" width="280" height="300" filterUnits="userSpaceOnUse" color-interpolation-filters="sRGB">
<feFlood flood-opacity="0" result="BackgroundImageFix"/>
<feColorMatrix in="SourceAlpha" type="matrix" values="0 0 0 0 0 0 0 0 0 0 0 0 0 0 0 0 0 0 127 0" result="hardAlpha"/>
<feOffset/>
<feGaussianBlur stdDeviation="10"/>
<feComposite in2="hardAlpha" operator="out"/>
<feColorMatrix type="matrix" values="0 0 0 0 0 0 0 0 0 0 0 0 0 0 0 0 0 0 0.1 0"/>
<feBlend mode="normal" in2="BackgroundImageFix" result="effect1_dropShadow_291_11"/>
<feBlend mode="normal" in="SourceGraphic" in2="effect1_dropShadow_291_11" result="shape"/>
</filter>
</defs>
</svg>
