<svg width="270" height="266" viewBox="0 0 270 266" fill="none" xmlns="http://www.w3.org/2000/svg">
<path d="M141.488 161.562C140.477 160.483 138.118 163.249 134.343 163.316C130.568 163.384 124.569 161.09 123.794 161.596C122.513 162.136 122.445 162.81 123.119 163.215C126.355 165.239 129.995 167.026 133.77 167.026C137.545 167.026 142.566 162.777 141.454 161.596L141.488 161.562Z" fill="#E35D3C"/>
<path d="M121.165 135.322C122.951 135.322 124.4 133.872 124.4 131.072C124.4 128.273 122.951 127.059 121.165 127.059C119.378 127.059 117.929 128.273 117.929 131.072C117.929 133.872 119.378 135.322 121.165 135.322Z" fill="#E35D3C"/>
<path d="M147.555 135.018C148.97 135.018 150.082 133.669 150.082 131.106C150.082 128.542 148.936 127.396 147.555 127.396C146.173 127.396 145.027 128.542 145.027 131.106C145.027 133.669 146.173 135.018 147.555 135.018Z" fill="#E35D3C"/>
<path d="M136.163 155.424C140.005 154.075 141.387 153.097 140.477 147.835C139.567 142.641 139.634 136.098 139.162 130.33C139.162 130.33 138.926 127.463 138.455 124.799C138.151 123.146 138.151 123.18 136.533 123.281C133.871 123.484 134.882 125.069 135.051 128.172C135.489 135.592 136.129 142.068 136.635 149.859C133.871 153.805 130.231 149.623 127.636 152.759C124.872 154.614 132.017 156.841 136.163 155.39V155.424Z" fill="#E35D3C"/>
<path d="M266.225 103.281C253.013 49.1471 200.57 5.16578 142.971 0.410138C87.6969 -4.14314 32.6925 29.6186 10.7515 81.6271C3.6737 98.3562 0.269629 115.625 0 132.421C0.404444 166.925 13.6837 198.326 35.3214 222.003C60.0262 249.019 95.5162 265.984 135.017 265.984C150.588 265.984 165.485 263.32 179.405 258.463C185.168 256.439 190.763 254.045 196.155 251.313C204.75 246.928 212.839 241.666 220.253 235.629C250.182 211.21 269.427 174.244 270 132.725C269.831 123.011 268.618 113.129 266.225 103.247V103.281ZM35.0855 190.501C34.344 189.287 33.6362 188.039 32.9622 186.791C32.6925 186.319 32.4566 185.847 32.2207 185.374C31.8163 184.565 31.3781 183.789 31.0074 182.98C21.7389 164.092 19.2785 143.754 21.1659 122.236C23.2555 98.1876 32.9959 77.4449 48.3647 59.2317C53.4203 53.2282 59.0825 47.663 65.0481 42.5701C72.3617 36.3642 80.9562 33.16 90.7977 34.8127C94.0669 35.3523 95.8869 34.6103 97.7069 31.3724C102.931 21.8949 112.132 17.8475 122.209 17.038C130.265 16.3972 138.893 16.4647 146.611 18.6233C160.8 22.6032 165.081 39.6695 155.34 50.9347C152.307 54.4424 148.262 57.0394 143.443 61.1205C159.654 64.4933 160.969 75.9608 159.856 88.9461C159.486 93.1621 159.789 97.4793 159.789 101.898C135.859 96.2988 124.468 94.4438 95.2128 105.439C95.2128 97.8166 94.9095 90.3627 95.415 82.9425C95.5499 80.9526 97.8417 78.4904 99.7965 77.4449C104.077 75.1514 108.762 73.6336 114.053 71.475C112.065 70.2271 110.784 69.0803 109.267 68.5744C97.7406 64.5945 80.3495 78.9626 81.8662 91.0372C82.4728 95.7254 82.7762 100.447 82.9447 105.136C83.1469 110.768 82.8773 115.861 78.9677 121.089C72.7325 129.386 78.2936 143.417 89.0451 147.97C93.3254 149.791 93.8984 152.186 94.4039 156.267C95.8532 167.33 92.348 173.907 81.2258 177.819C68.8566 182.204 57.1277 188.444 45.264 194.245C43.7811 194.953 42.6014 195.29 41.5566 195.223C39.3659 195.29 37.4785 194.245 36.0629 192.086C36.0292 192.019 35.9618 191.951 35.9281 191.884C35.8607 191.749 35.7933 191.614 35.6922 191.513C35.49 191.176 35.2877 190.838 35.0855 190.501ZM154.599 116.536L154.329 123.686C153.756 137.346 153.992 156.301 145.162 167.87C137.14 178.393 124.4 179.202 114.896 169.961C108.121 163.384 105.189 154.817 102.661 146.081C101.751 142.978 101.077 140.685 96.8643 140.044C90.7302 139.133 87.7306 132.826 88.6743 125.035H97.7743C103.605 113.702 114.323 112.185 124.939 111.409C134.848 110.701 144.791 111.476 154.599 116.502V116.536ZM196.492 229.693C196.425 218.293 196.492 206.893 196.593 195.493C196.593 192.828 196.762 189.422 198.346 187.702C205.087 180.248 205.39 171.478 205.087 162.271C204.817 154.277 205.019 146.284 205.019 138.391H213.715C213.715 144.968 213.614 151.242 213.715 157.515C213.917 167.667 212.636 178.089 219.445 187.061C220.456 188.376 220.152 190.838 220.152 192.795C220.152 198.528 220.152 204.296 220.152 210.097C213.142 217.652 205.154 224.229 196.391 229.727L196.492 229.693ZM248.901 154.749C247.452 166.015 244.014 176.403 238.217 184.902C238.217 184.868 238.15 184.801 238.116 184.767C235.69 181.057 233.061 177.516 230.971 173.671C229.454 170.905 228.106 167.566 227.837 164.733C226.96 154.749 223.489 144.665 229.792 134.782C231.679 131.848 229.96 126.688 230.196 122.539C230.398 118.829 228.713 117.784 225.242 117.817C215.771 117.986 206.3 118.087 196.863 117.817C192.145 117.682 190.257 119.402 190.83 123.989C191.605 130.128 192.684 136.266 192.987 142.405C193.358 149.488 193.459 156.638 192.852 163.687C192.583 167.06 191.1 170.871 188.943 173.435C183.247 180.18 179.708 187.432 179.708 196.437C179.708 210.434 179.573 224.431 179.438 238.429C165.721 244.095 150.723 247.265 134.949 247.265C103.099 247.265 74.2155 234.449 53.2181 213.672C65.0818 208.141 76.9454 202.643 89.0114 197.584C96.7969 194.312 101.954 190.771 99.7628 181.496C99.5269 180.484 99.9313 179.303 100.134 177.28C105.796 180.956 110.683 184.565 115.974 187.398C121.198 190.198 123.962 193.57 123.221 199.877C122.749 203.891 130.905 208.984 134.376 207.23C142.971 202.913 151.397 198.292 160.092 194.211C163.463 192.626 164.743 190.67 164.676 186.993C164.541 176.538 164.912 166.082 164.743 155.626C164.676 151.815 165.755 149.791 169.361 147.97C179.405 142.911 183.921 128.273 177.854 119.504C174.989 115.389 174.383 111.409 174.484 106.856C174.551 103.112 174.753 99.3343 174.484 95.6242C174.147 91.3408 175.461 88.339 178.832 85.4384C187.864 77.7147 192.38 67.6637 192.145 55.6903C192.043 50.2264 191.369 44.7962 190.965 39.366C228.612 50.5637 254.665 109.689 248.8 154.614L248.901 154.749Z" fill="#E35D3C"/>
</svg>
