<svg width="300" height="198" viewBox="0 0 300 198" fill="none" xmlns="http://www.w3.org/2000/svg">
<path d="M25.5244 97.6686C25.5244 97.3942 25.5244 97.123 25.5244 96.8548C25.5244 92.281 27.7941 87.8755 31.9828 83.76H32.1143C33.0487 83.7089 33.9822 83.8782 34.8484 84.2557C35.1699 84.4147 35.4476 84.6595 35.6546 84.9666C35.9041 85.355 36.0385 85.8145 36.0402 86.2854C36.1453 89.2411 33.0169 94.4603 32.272 100.316C32.272 100.484 32.2282 100.652 32.2107 100.83C32.1478 101.451 32.1156 102.076 32.1143 102.701C32.2045 105.58 32.7989 108.417 33.8669 111.063L34.1736 111.876L33.7793 111.54C33.5953 111.39 33.42 111.231 33.2447 111.072L32.7277 110.604L32.237 110.137C31.9127 109.828 31.5885 109.51 31.2906 109.201C30.9926 108.893 30.756 108.621 30.5019 108.332C29.5614 107.279 28.7137 106.136 27.9693 104.918L27.7502 104.543C27.4244 103.984 27.1317 103.403 26.8739 102.804C26.7425 102.504 26.6198 102.205 26.5059 101.868C26.4445 101.7 26.3832 101.532 26.3306 101.363C26.278 101.195 26.2167 101.017 26.1641 100.849C25.9444 100.1 25.7832 99.3339 25.6822 98.5572C25.6822 98.4169 25.6822 98.2859 25.6822 98.1456C25.6822 98.0053 25.6822 97.8744 25.6822 97.7434C25.6859 97.7186 25.6859 97.6934 25.6822 97.6686H25.5244Z" fill="#BF4E49"/>
<path d="M35.514 115.6C36.4955 118.518 38.1429 125.888 33.8402 125.888C32.5871 125.888 31.001 125.888 29.2133 125.888C18.4434 125.729 -1.45763 117.236 0.0846775 101.569V100.634C1.48678 112.635 16.8924 116.301 26.7947 116.535C28.854 116.535 30.6768 116.535 32.0526 116.535C33.8928 116.497 34.9619 116.189 35.514 115.6Z" fill="#353535"/>
<path d="M275.221 97.6686C275.221 97.6686 275.221 97.7528 275.221 97.7902C275.221 97.8276 275.221 98.0615 275.221 98.1924C275.221 98.3234 275.221 98.4637 275.221 98.604C275.12 99.3807 274.959 100.147 274.739 100.896C274.686 101.064 274.634 101.232 274.572 101.41C274.511 101.588 274.458 101.747 274.397 101.915C274.283 102.224 274.16 102.523 274.029 102.85C273.771 103.449 273.479 104.03 273.153 104.59L272.934 104.964C272.189 106.183 271.342 107.326 270.401 108.378C270.144 108.671 269.881 108.961 269.612 109.248C269.314 109.566 268.99 109.884 268.666 110.184L268.175 110.651L267.658 111.119C267.483 111.278 267.308 111.437 267.124 111.587L266.484 112.129L265.914 112.587C265.345 113.046 264.74 113.523 264.118 113.953L263.058 114.692C261.945 115.459 260.762 116.217 259.552 116.946L258.816 117.376C251.449 121.411 243.711 124.624 235.725 126.964C234.595 127.31 233.447 127.646 232.273 127.983L231.449 128.217L229.854 128.657C228.829 128.937 227.786 129.208 226.734 129.48C224.421 130.06 222.055 130.621 219.619 131.163L218.62 131.369C216.464 131.837 214.262 132.28 212.012 132.697C210.882 132.912 209.751 133.118 208.604 133.315L206.658 133.642C205.782 133.792 204.905 133.923 204.029 134.063C202.382 134.325 200.717 134.571 199.034 134.802C195.879 135.245 192.666 135.641 189.395 135.99C188.045 136.139 186.687 136.28 185.311 136.411C180.877 136.832 176.338 137.178 171.72 137.44C168.994 137.589 166.234 137.72 163.447 137.814H162.869C160.915 137.87 158.943 137.926 156.962 137.954C154.824 137.991 152.671 138.01 150.504 138.01C148.337 138.01 146.184 137.991 144.046 137.954C142.065 137.954 140.093 137.87 138.139 137.814H137.561C134.774 137.72 132.014 137.589 129.288 137.44L125.625 137.215L124.662 137.15L122.672 137L120.972 136.869L119.754 136.766L115.741 136.411C114.365 136.28 113.007 136.139 111.657 135.99L110.255 135.84L108.161 135.597L106.829 135.438H106.627L105.383 135.279H105.146L102.92 134.98L101.86 134.839L99.5902 134.512L96.8649 134.1L95.6205 133.904L94.271 133.679L92.3256 133.352C91.1776 133.156 90.0472 132.95 88.9167 132.735C86.6617 132.317 84.4592 131.874 82.3093 131.407L81.3104 131.201C78.8742 130.658 76.5082 130.097 74.1947 129.517C73.1431 129.246 72.1003 128.975 71.075 128.694L69.4801 128.254L68.6564 128.021C67.4821 127.684 66.3342 127.347 65.2037 127.001C57.1953 124.648 49.4365 121.416 42.0515 117.358L41.3154 116.927C40.0623 116.198 38.8793 115.44 37.8102 114.673L36.7499 113.934L35.9524 113.354C35.6106 113.102 35.2776 112.84 34.9534 112.578L34.3838 112.12L34.1384 111.914L33.7441 111.577C33.5601 111.428 33.3848 111.269 33.2095 111.11L32.6925 110.642L32.2018 110.174C31.8776 109.866 31.5533 109.548 31.2554 109.239C30.9574 108.93 30.7208 108.659 30.4667 108.369C29.5262 107.316 28.6785 106.173 27.9341 104.955L27.7151 104.581C27.3892 104.021 27.0965 103.44 26.8388 102.841C26.7073 102.542 26.5846 102.242 26.4707 101.906C26.4094 101.737 26.348 101.569 26.2954 101.401C26.2429 101.232 26.1815 101.055 26.1289 100.886C25.9092 100.138 25.748 99.3714 25.647 98.5946C25.647 98.4543 25.647 98.3234 25.647 98.1831C25.647 98.0428 25.647 97.9118 25.647 97.7809C25.6507 97.7561 25.6507 97.7308 25.647 97.706C25.9712 91.2615 29.2399 87.015 34.9446 84.2932C35.2952 84.1342 35.6545 83.9658 36.0313 83.8162C37.4216 83.2157 38.8472 82.7127 40.2989 82.3103C61.3304 76.6234 102.762 82.8434 150.399 82.8434C198.035 82.8434 239.423 76.6047 260.472 82.3103C269.525 84.7422 274.809 89.3908 275.221 97.6686Z" fill="#353535"/>
<path d="M275.247 96.855C275.247 97.1294 275.247 97.4006 275.247 97.6688C275.247 97.6688 275.247 97.7529 275.247 97.7904H269.112C269.158 97.3587 269.181 96.9246 269.183 96.4902C269.183 91.4674 266.116 86.6785 260.542 82.2917C242.928 68.4205 200.269 58.6368 150.442 58.6368C100.615 58.6368 57.8861 68.4205 40.2985 82.3104C38.7654 83.4972 37.3396 84.8343 36.0396 86.3043C35.5266 86.8683 35.0494 87.4683 34.6112 88.1002C32.7728 90.4749 31.7331 93.4388 31.6581 96.5183C31.6593 96.9527 31.6828 97.3867 31.7282 97.8184H25.594C25.5978 97.7936 25.5978 97.7684 25.594 97.7436C25.594 97.4692 25.594 97.198 25.594 96.9298C25.594 92.356 27.8636 87.9505 32.0524 83.835C33.112 82.7976 34.2268 81.8264 35.3912 80.9261C54.3371 66.1476 98.731 55.7746 150.469 55.7746C219.338 55.6998 275.247 74.1261 275.247 96.855Z" fill="#444444"/>
<path d="M147.743 197.873C207.514 197.873 255.968 187.194 255.968 174.021C255.968 160.849 207.514 150.17 147.743 150.17C87.9726 150.17 39.5188 160.849 39.5188 174.021C39.5188 187.194 87.9726 197.873 147.743 197.873Z" fill="#CECECE"/>
<path d="M150.372 134.325C215.951 134.325 269.113 117.382 269.113 96.4809C269.113 75.5802 215.951 58.6368 150.372 58.6368C84.7939 58.6368 31.6321 75.5802 31.6321 96.4809C31.6321 117.382 84.7939 134.325 150.372 134.325Z" fill="#C6C6C6"/>
<path d="M31.7019 97.7904C31.7019 97.7904 79.5311 80.8887 91.2211 79.0835C102.911 77.2783 147.06 80.4023 153.439 78.1481C159.819 75.8939 191.077 78.887 215.657 82.8249C224.885 84.3027 269.113 85.8273 269.113 96.4809C269.113 107.134 263.592 144.137 147.209 134.989C30.8256 125.841 37.0299 125.851 31.7019 97.7904Z" fill="#47201A"/>
<path d="M120.85 88.2685C120.85 93.2352 108.756 97.7903 96.5844 97.7903C84.4124 97.7903 76.771 93.2352 76.771 88.2685C76.771 84.5271 82.467 77.9142 90.5466 74.9679C92.3514 74.2999 94.221 73.8512 96.12 73.6303C96.8939 73.5346 97.6719 73.4815 98.451 73.4713H98.8103C99.8179 73.4701 100.825 73.5357 101.825 73.6678C112.577 75.0895 120.85 83.7227 120.85 88.2685Z" fill="#4F2518"/>
<path d="M101.825 73.6678C101.587 74.7957 101.253 75.8978 100.826 76.9602C100.177 78.5968 99.4246 80.1844 98.5736 81.7118C95.7869 86.7252 92.1765 90.7846 91.1337 87.7447C90.3187 85.3409 91.9486 81.9456 94.1482 78.7841C95.2073 77.2823 96.3454 75.8458 97.557 74.4815C97.855 74.1261 98.1471 73.7894 98.4333 73.4714H98.7926C99.8062 73.4693 100.819 73.5349 101.825 73.6678Z" fill="#F4F4F4"/>
<path d="M107.608 83.8912C106.381 85.2007 102.403 83.8912 98.5734 81.7119C97.0479 80.8514 95.5835 79.873 94.1919 78.7842C92.76 77.7877 91.5343 76.489 90.5902 74.968C92.395 74.3 94.2646 73.8513 96.1636 73.6305C96.6561 73.8874 97.1358 74.1715 97.6007 74.4817C98.7379 75.2339 99.8296 76.0617 100.869 76.9603C103.273 79.0898 105.525 81.4064 107.608 83.8912Z" fill="#F4F4F4"/>
<path d="M152.466 10.3636C149.654 23.9542 138.516 18.894 137.657 30.7448C136.798 42.5956 123.846 30.6045 124.635 43.1475C125.423 55.6905 119.14 51.285 119.649 58.6368C120.157 65.9886 121.796 74.996 121.796 74.996C121.796 74.996 113.979 92.7114 114.873 98.9876C115.767 105.264 114.224 113.018 112.805 118.518C111.385 124.017 115.197 128.582 115.197 128.582C115.197 128.582 120.525 115.684 125.161 104.394C129.796 93.1043 126.037 73.3591 137.99 67.8032C149.943 62.2472 165.506 62.5653 163.859 46.0377C162.211 29.5102 172.736 16.4153 175.365 11.7386C177.993 7.06186 169.686 0 169.686 0C169.686 0 154.088 2.44125 152.466 10.3636Z" fill="#0E5110"/>
<path d="M156.7 23.4396C156.7 23.4396 128.912 55.9803 128.027 72.2085C127.142 88.4367 125.626 98.3982 125.626 98.3982C125.626 98.3982 135.265 62.2564 140.427 53.3893C145.588 44.5223 156.7 23.4396 156.7 23.4396Z" fill="#377C37"/>
<path d="M163.316 29.2951C162.439 43.1757 150.697 39.9207 151.485 51.7434C152.274 63.5662 137.806 53.7731 140.312 66.0636C142.819 78.354 136.01 74.968 137.526 82.1609C139.042 89.3537 141.907 98.0056 141.907 98.0056C141.907 98.0056 136.649 116.759 138.402 122.83C140.155 128.9 139.699 136.86 139.05 142.472C138.402 148.084 142.81 152.05 142.81 152.05C142.81 152.05 146.315 138.45 149.321 126.562C152.327 114.673 145.903 95.6953 156.962 88.3435C168.021 80.9917 183.453 78.8404 179.545 62.7431C175.636 46.6458 184.233 32.045 186.187 27.0129C188.141 21.9807 178.975 16.2938 178.975 16.2938C178.975 16.2938 163.859 21.2044 163.316 29.2951Z" fill="#0E5110"/>
<path d="M169.326 41.5574C169.326 41.5574 146.332 78.1107 147.699 94.3015C149.066 110.492 148.961 120.538 148.961 120.538C148.961 120.538 153.518 83.2457 157.365 73.6958C161.212 64.146 169.326 41.5574 169.326 41.5574Z" fill="#377C37"/>
<path d="M178.546 45.1491C177.801 56.6164 168.127 53.932 168.784 63.7251C169.441 73.5181 157.488 65.3993 159.556 75.5478C161.624 85.6963 155.972 82.8996 157.252 88.8578C158.531 94.8159 160.862 101.953 160.862 101.953C160.862 101.953 156.48 117.433 157.953 122.446C159.425 127.46 159.022 134.026 158.487 138.665C157.953 143.304 161.581 146.578 161.581 146.578C161.581 146.578 164.464 135.354 166.97 125.523C169.476 115.693 164.139 100.063 173.271 93.9741C182.402 87.885 195.178 86.1266 191.918 72.8353C188.659 59.5441 195.792 47.4875 197.404 43.3252C199.017 39.1629 191.445 34.4768 191.445 34.4768C191.445 34.4768 178.984 38.4707 178.546 45.1491Z" fill="#0E5110"/>
<path d="M183.514 55.2882C183.514 55.2882 164.524 85.4625 165.655 98.8285C166.785 112.195 166.671 120.501 166.671 120.501C166.671 120.501 170.457 89.7276 173.629 81.8146C176.801 73.9016 183.514 55.2882 183.514 55.2882Z" fill="#377C37"/>
<path d="M195.739 25.5538C194.863 39.4343 183.12 36.1793 183.909 48.0021C184.697 59.8249 170.23 50.0318 172.736 62.3222C175.242 74.6127 168.433 71.2267 169.949 78.4195C171.465 85.6123 174.331 94.2643 174.331 94.2643C174.331 94.2643 169.073 113.018 170.825 119.088C172.578 125.159 172.122 133.119 171.474 138.731C170.825 144.343 175.233 148.309 175.233 148.309C175.233 148.309 178.739 134.709 181.744 122.82C184.75 110.932 178.327 91.954 189.386 84.6021C200.445 77.2503 215.877 75.099 211.968 59.0018C208.06 42.9045 216.657 28.3037 218.611 23.2715C220.565 18.2394 211.399 12.5525 211.399 12.5525C211.399 12.5525 196.282 17.4631 195.739 25.5538Z" fill="#0E5110"/>
<path d="M201.75 37.8158C201.75 37.8158 178.755 74.3691 180.122 90.5599C181.49 106.751 181.384 116.796 181.384 116.796C181.384 116.796 185.941 79.5042 189.788 69.9543C193.635 60.4044 201.75 37.8158 201.75 37.8158Z" fill="#377C37"/>
<path d="M210.969 41.4078C210.225 52.8751 200.55 50.1907 201.207 59.9837C201.864 69.7768 189.912 61.658 191.98 71.8065C194.048 81.955 188.396 79.1583 189.675 85.1165C190.954 91.0746 193.285 98.2113 193.285 98.2113C193.285 98.2113 188.904 113.691 190.376 118.705C191.848 123.718 191.445 130.284 190.911 134.924C190.376 139.563 194.004 142.837 194.004 142.837C194.004 142.837 196.887 131.612 199.393 121.782C201.9 111.952 196.563 96.3219 205.694 90.2328C214.825 84.1437 227.602 82.3853 224.342 69.094C221.082 55.8027 228.215 43.7461 229.828 39.5838C231.44 35.4216 223.869 30.7355 223.869 30.7355C223.869 30.7355 211.408 34.7294 210.969 41.4078Z" fill="#0E5110"/>
<path d="M215.938 51.5469C215.938 51.5469 196.948 81.7211 198.079 95.0872C199.209 108.453 199.095 116.759 199.095 116.759C199.095 116.759 202.881 85.9863 206.053 78.0733C209.225 70.1603 215.938 51.5469 215.938 51.5469Z" fill="#377C37"/>
<path d="M122.05 35.1878C122.672 47.4128 133.004 44.7377 132.145 55.1855C131.286 65.6333 144.142 57.1871 141.785 67.9529C139.427 78.7188 145.448 75.8566 144.01 82.1608C142.573 88.4651 139.944 96.032 139.944 96.032C139.944 96.032 144.326 112.606 142.705 117.91C141.083 123.213 141.373 130.219 141.828 135.176C142.284 140.134 138.393 143.594 138.393 143.594C138.393 143.594 135.51 131.575 133.013 121.071C130.515 110.567 136.448 94.0023 126.826 87.3427C117.204 80.683 103.682 78.4756 107.337 64.3893C110.991 50.303 103.647 37.311 101.991 32.8494C100.335 28.3878 108.485 23.496 108.485 23.496C108.485 23.496 121.691 28.0605 122.05 35.1878Z" fill="#0E5110"/>
<path d="M116.591 45.8787C116.591 45.8787 136.308 78.3913 134.88 92.6459C133.451 106.901 133.442 115.702 133.442 115.702C133.442 115.702 129.937 82.8529 126.669 74.3693C123.4 65.8857 116.591 45.8787 116.591 45.8787Z" fill="#377C37"/>
<path d="M142.511 136.56C142.511 136.56 162.833 87.6699 169.677 81.8521" stroke="#EFE6DA" stroke-width="2" stroke-miterlimit="10"/>
<path d="M171.806 83.8444C171.298 85.0136 169.826 84.415 168.073 83.5451C166.321 82.6752 164.936 81.8615 165.444 80.7391C165.953 79.6167 167.793 79.3267 169.554 80.1966C171.316 81.0665 172.315 82.6752 171.806 83.8444Z" fill="#EFE6DA"/>
<path d="M147.525 145.53C147.525 145.53 163.298 94.7786 169.608 88.2686" stroke="#EFE6DA" stroke-width="2" stroke-miterlimit="10"/>
<path d="M171.894 90.0646C171.491 91.2899 169.975 90.8316 168.152 90.1488C166.33 89.466 164.884 88.8019 165.278 87.586C165.672 86.37 167.486 85.9398 169.318 86.6506C171.149 87.3615 172.297 88.858 171.894 90.0646Z" fill="#EFE6DA"/>
<path d="M137.412 142.172C137.412 142.172 153.185 91.4205 159.486 84.9105" stroke="#EFE6DA" stroke-width="2" stroke-miterlimit="10"/>
<path d="M161.782 86.716C161.379 87.9413 159.863 87.4923 158.04 86.8001C156.217 86.108 154.763 85.4626 155.166 84.2373C155.569 83.012 157.374 82.5911 159.197 83.3019C161.02 84.0128 162.185 85.5 161.782 86.716Z" fill="#EFE6DA"/>
<path d="M147.752 154.931C147.752 154.931 163.525 104.169 169.835 97.6687" stroke="#EFE6DA" stroke-width="2" stroke-miterlimit="10"/>
<path d="M172.131 99.4645C171.728 100.68 170.212 100.232 168.381 99.5487C166.549 98.8659 165.112 98.2018 165.515 96.9859C165.918 95.7699 167.724 95.3303 169.546 96.0505C171.369 96.7707 172.526 98.2112 172.131 99.4645Z" fill="#EFE6DA"/>
<path d="M151.66 150.591C151.66 150.591 167.434 99.8387 173.743 93.3287" stroke="#EFE6DA" stroke-width="2" stroke-miterlimit="10"/>
<path d="M176.031 95.1622C175.637 96.3875 174.121 95.9292 172.289 95.2463C170.458 94.5635 169.021 93.8994 169.424 92.6835C169.827 91.4675 171.623 91.0373 173.455 91.7482C175.286 92.459 176.434 93.9462 176.031 95.1622Z" fill="#EFE6DA"/>
<path d="M135.01 136.85C135.01 136.85 150.784 86.0985 157.094 79.5885" stroke="#EFE6DA" stroke-width="2" stroke-miterlimit="10"/>
<path d="M159.38 81.3749C158.986 82.6002 157.47 82.1419 155.638 81.4591C153.807 80.7763 152.369 80.1215 152.764 78.8962C153.158 77.6709 154.972 77.25 156.804 77.9609C158.635 78.6717 159.783 80.1683 159.38 81.3749Z" fill="#EFE6DA"/>
<path d="M150.573 142.827C150.573 142.827 170.895 93.9461 177.739 88.1189" stroke="#EFE6DA" stroke-width="2" stroke-miterlimit="10"/>
<path d="M179.869 90.1485C179.36 91.3177 177.888 90.7191 176.135 89.8492C174.383 88.9793 172.998 88.1656 173.507 87.0432C174.015 85.9207 175.855 85.6308 177.608 86.5007C179.36 87.3705 180.377 88.9793 179.869 90.1485Z" fill="#EFE6DA"/>
<path d="M141.328 140.423C141.328 140.423 157.742 89.9146 164.112 83.4701" stroke="#EFE6DA" stroke-width="2" stroke-miterlimit="10"/>
<path d="M166.383 85.3034C165.971 86.5193 164.455 86.0423 162.641 85.3034C160.827 84.5645 159.381 83.9191 159.802 82.7031C160.222 81.4872 162.028 81.085 163.841 81.7678C165.655 82.4506 166.795 84.0874 166.383 85.3034Z" fill="#EFE6DA"/>
<path d="M149.837 145.979C149.837 145.979 166.25 95.4707 172.621 89.0261" stroke="#EFE6DA" stroke-width="2" stroke-miterlimit="10"/>
<path d="M174.909 90.8594C174.497 92.0754 172.981 91.5983 171.167 90.8594C169.353 90.1205 167.907 89.4751 168.328 88.2592C168.748 87.0432 170.554 86.641 172.368 87.3238C174.182 88.0066 175.33 89.6435 174.909 90.8594Z" fill="#EFE6DA"/>
<path d="M142.634 149.019C142.634 149.019 158.408 98.2675 164.717 91.7574" stroke="#EFE6DA" stroke-width="2" stroke-miterlimit="10"/>
<path d="M167.014 93.5345C166.611 94.7598 165.095 94.3015 163.263 93.6187C161.432 92.9359 159.994 92.2718 160.397 91.0558C160.801 89.8399 162.606 89.4096 164.429 90.1205C166.251 90.8313 167.408 92.3372 167.014 93.5345Z" fill="#EFE6DA"/>
<path d="M140.496 149.786C140.496 149.786 151.45 97.7715 157.146 90.5974" stroke="#EFE6DA" stroke-width="2" stroke-miterlimit="10"/>
<path d="M159.626 92.1034C159.337 93.3567 157.777 93.0948 155.867 92.6272C153.956 92.1595 152.449 91.6918 152.73 90.4385C153.01 89.1851 154.789 88.5678 156.699 89.0074C158.61 89.447 159.915 90.8594 159.626 92.1034Z" fill="#EFE6DA"/>
<path d="M132.636 146.606C132.636 146.606 148.409 95.845 154.71 89.335" stroke="#EFE6DA" stroke-width="2" stroke-miterlimit="10"/>
<path d="M157.006 91.1401C156.603 92.356 155.087 91.9071 153.264 91.2243C151.442 90.5415 149.987 89.8774 150.39 88.6614C150.793 87.4455 152.598 87.0058 154.421 87.7261C156.244 88.4463 157.409 89.9148 157.006 91.1401Z" fill="#EFE6DA"/>
<path d="M136.438 147.944C136.438 147.944 147.392 95.929 153.088 88.7643" stroke="#EFE6DA" stroke-width="2" stroke-miterlimit="10"/>
<path d="M155.569 90.2702C155.288 91.5142 153.72 91.2055 151.818 90.7939C149.916 90.3824 148.392 89.8586 148.681 88.5959C148.97 87.3332 150.74 86.7252 152.642 87.1648C154.543 87.6044 155.858 89.0168 155.569 90.2702Z" fill="#EFE6DA"/>
<path d="M136.886 152.63C136.886 152.63 152.659 101.868 158.96 95.3678" stroke="#EFE6DA" stroke-width="2" stroke-miterlimit="10"/>
<path d="M161.23 97.1636C160.827 98.3796 159.311 97.9306 157.488 97.2478C155.665 96.565 154.211 95.9009 154.614 94.685C155.017 93.469 156.822 93.0294 158.645 93.7496C160.468 94.4698 161.659 95.9477 161.23 97.1636Z" fill="#EFE6DA"/>
<path d="M134.712 149.29C134.712 149.29 142.187 96.4153 139.339 87.5576" stroke="#EFE6DA" stroke-width="2" stroke-miterlimit="10"/>
<path d="M136.535 88.063C136.377 89.3444 137.92 89.6718 139.839 89.9337C141.758 90.1955 143.344 90.3171 143.484 88.9983C143.624 87.6795 142.214 86.4635 140.294 86.1923C138.375 85.921 136.693 86.7815 136.535 88.063Z" fill="#EFE6DA"/>
<path d="M136.991 146.157C136.991 146.157 144.466 93.2727 141.618 84.4243" stroke="#EFE6DA" stroke-width="2" stroke-miterlimit="10"/>
<path d="M138.813 84.92C138.656 86.2014 140.189 86.5382 142.108 86.7907C144.027 87.0432 145.614 87.1742 145.763 85.8554C145.912 84.5365 144.492 83.3206 142.573 83.0493C140.654 82.7781 138.971 83.6386 138.813 84.92Z" fill="#EFE6DA"/>
<path d="M141.128 151.255C141.128 151.255 148.603 98.3703 145.754 89.522" stroke="#EFE6DA" stroke-width="2" stroke-miterlimit="10"/>
<path d="M142.95 90.0175C142.792 91.299 144.335 91.6357 146.254 91.8882C148.173 92.1408 149.759 92.2717 149.899 90.9529C150.039 89.6341 148.637 88.4181 146.718 88.1469C144.799 87.8756 143.108 88.7361 142.95 90.0175Z" fill="#EFE6DA"/>
<path d="M134.064 142.612C134.064 142.612 145.009 90.5974 150.714 83.4233" stroke="#EFE6DA" stroke-width="2" stroke-miterlimit="10"/>
<path d="M153.176 84.9386C152.887 86.1826 151.318 85.874 149.417 85.4624C147.515 85.0509 145.99 84.5271 146.279 83.2643C146.569 82.0016 148.339 81.3936 150.24 81.8333C152.142 82.2729 153.456 83.6852 153.176 84.9386Z" fill="#EFE6DA"/>
<path d="M124.109 122.53C124.109 122.53 144.431 73.6399 151.275 67.822" stroke="#EFE6DA" stroke-width="2" stroke-miterlimit="10"/>
<path d="M153.404 69.8142C152.896 70.9833 151.424 70.3847 149.671 69.5148C147.918 68.645 146.534 67.8312 147.042 66.7088C147.55 65.5864 149.391 65.2964 151.152 66.1663C152.913 67.0362 153.912 68.645 153.404 69.8142Z" fill="#EFE6DA"/>
<path d="M129.122 131.5C129.122 131.5 144.895 80.7485 151.205 74.2385" stroke="#EFE6DA" stroke-width="2" stroke-miterlimit="10"/>
<path d="M153.492 76.0342C153.089 77.2595 151.573 76.8012 149.75 76.1184C147.927 75.4356 146.481 74.7715 146.876 73.5556C147.27 72.3396 149.084 71.9094 150.915 72.6202C152.747 73.3311 153.895 74.8276 153.492 76.0342Z" fill="#EFE6DA"/>
<path d="M119.009 128.142C119.009 128.142 134.783 77.3905 141.083 70.8805" stroke="#EFE6DA" stroke-width="2" stroke-miterlimit="10"/>
<path d="M143.38 72.6856C142.977 73.9109 141.461 73.4619 139.638 72.7697C137.815 72.0776 136.36 71.4322 136.764 70.2069C137.167 68.9816 138.972 68.5607 140.795 69.2716C142.617 69.9824 143.783 71.4696 143.38 72.6856Z" fill="#EFE6DA"/>
<path d="M129.35 140.9C129.35 140.9 145.123 90.1391 151.433 83.6384" stroke="#EFE6DA" stroke-width="2" stroke-miterlimit="10"/>
<path d="M153.729 85.4345C153.326 86.6505 151.81 86.2015 149.978 85.5187C148.147 84.8359 146.709 84.1718 147.113 82.9558C147.516 81.7399 149.321 81.3003 151.144 82.0205C152.966 82.7407 154.123 84.1811 153.729 85.4345Z" fill="#EFE6DA"/>
<path d="M133.258 136.56C133.258 136.56 149.032 85.8085 155.341 79.2985" stroke="#EFE6DA" stroke-width="2" stroke-miterlimit="10"/>
<path d="M157.628 81.1319C157.234 82.3572 155.718 81.8989 153.886 81.2161C152.055 80.5333 150.618 79.8692 151.021 78.6532C151.424 77.4373 153.22 77.007 155.052 77.7179C156.883 78.4287 158.031 79.9159 157.628 81.1319Z" fill="#EFE6DA"/>
<path d="M116.608 122.82C116.608 122.82 132.381 72.0685 138.691 65.5585" stroke="#EFE6DA" stroke-width="2" stroke-miterlimit="10"/>
<path d="M140.978 67.3449C140.583 68.5702 139.067 68.1118 137.236 67.429C135.404 66.7462 133.967 66.0915 134.362 64.8662C134.756 63.6409 136.57 63.22 138.401 63.9309C140.233 64.6417 141.381 66.1383 140.978 67.3449Z" fill="#EFE6DA"/>
<path d="M132.171 128.797C132.171 128.797 152.493 79.9161 159.337 74.0889" stroke="#EFE6DA" stroke-width="2" stroke-miterlimit="10"/>
<path d="M161.466 76.1182C160.958 77.2874 159.486 76.6888 157.733 75.8189C155.98 74.949 154.596 74.1353 155.104 73.0129C155.612 71.8905 157.453 71.6005 159.205 72.4704C160.958 73.3403 161.974 74.949 161.466 76.1182Z" fill="#EFE6DA"/>
<path d="M122.926 126.393C122.926 126.393 139.339 75.8846 145.71 69.4401" stroke="#EFE6DA" stroke-width="2" stroke-miterlimit="10"/>
<path d="M147.98 71.2734C147.568 72.4893 146.052 72.0123 144.238 71.2734C142.424 70.5344 140.978 69.8891 141.399 68.6731C141.819 67.4572 143.625 67.055 145.439 67.7378C147.253 68.4206 148.392 70.0574 147.98 71.2734Z" fill="#EFE6DA"/>
<path d="M131.435 131.949C131.435 131.949 147.848 81.4404 154.219 74.9958" stroke="#EFE6DA" stroke-width="2" stroke-miterlimit="10"/>
<path d="M156.506 76.829C156.095 78.045 154.579 77.5679 152.765 76.829C150.951 76.0901 149.505 75.4447 149.925 74.2288C150.346 73.0128 152.151 72.6106 153.965 73.2934C155.779 73.9762 156.927 75.6131 156.506 76.829Z" fill="#EFE6DA"/>
<path d="M124.232 134.989C124.232 134.989 140.006 84.2371 146.315 77.7271" stroke="#EFE6DA" stroke-width="2" stroke-miterlimit="10"/>
<path d="M148.61 79.5044C148.207 80.7298 146.691 80.2714 144.86 79.5886C143.028 78.9058 141.591 78.2417 141.994 77.0258C142.397 75.8098 144.203 75.3796 146.025 76.0904C147.848 76.8013 149.005 78.3072 148.61 79.5044Z" fill="#EFE6DA"/>
<path d="M122.093 135.756C122.093 135.756 133.047 83.7412 138.743 76.5671" stroke="#EFE6DA" stroke-width="2" stroke-miterlimit="10"/>
<path d="M141.223 78.0732C140.934 79.3266 139.374 79.0647 137.464 78.597C135.554 78.1293 134.046 77.6617 134.327 76.4083C134.607 75.155 136.386 74.5376 138.297 74.9772C140.207 75.4169 141.513 76.8292 141.223 78.0732Z" fill="#EFE6DA"/>
<path d="M114.233 132.576C114.233 132.576 130.007 81.8147 136.308 75.3047" stroke="#EFE6DA" stroke-width="2" stroke-miterlimit="10"/>
<path d="M138.604 77.11C138.2 78.326 136.684 77.877 134.862 77.1942C133.039 76.5114 131.584 75.8473 131.987 74.6314C132.391 73.4154 134.196 72.9758 136.018 73.696C137.841 74.4162 139.007 75.8847 138.604 77.11Z" fill="#EFE6DA"/>
<path d="M118.036 133.913C118.036 133.913 128.99 81.8988 134.686 74.734" stroke="#EFE6DA" stroke-width="2" stroke-miterlimit="10"/>
<path d="M137.166 76.2399C136.886 77.4839 135.317 77.1752 133.416 76.7637C131.514 76.3521 129.989 75.8283 130.279 74.5656C130.568 73.3029 132.338 72.6949 134.24 73.1345C136.141 73.5741 137.456 74.9865 137.166 76.2399Z" fill="#EFE6DA"/>
<path d="M118.484 138.599C118.484 138.599 134.257 87.8382 140.558 81.3375" stroke="#EFE6DA" stroke-width="2" stroke-miterlimit="10"/>
<path d="M142.827 83.1336C142.424 84.3495 140.908 83.9006 139.085 83.2178C137.262 82.535 135.807 81.8709 136.211 80.6549C136.614 79.439 138.419 78.9994 140.242 79.7196C142.064 80.4398 143.256 81.9176 142.827 83.1336Z" fill="#EFE6DA"/>
<path d="M116.31 135.26C116.31 135.26 123.785 82.3851 120.937 73.5273" stroke="#EFE6DA" stroke-width="2" stroke-miterlimit="10"/>
<path d="M118.133 74.0326C117.975 75.314 119.517 75.6414 121.436 75.9033C123.355 76.1652 124.942 76.2867 125.082 74.9679C125.222 73.6491 123.811 72.4331 121.892 72.1619C119.973 71.8906 118.29 72.7511 118.133 74.0326Z" fill="#EFE6DA"/>
<path d="M118.589 132.127C118.589 132.127 126.063 79.2424 123.215 70.394" stroke="#EFE6DA" stroke-width="2" stroke-miterlimit="10"/>
<path d="M120.411 70.89C120.253 72.1714 121.787 72.5081 123.706 72.7607C125.625 73.0132 127.211 73.1442 127.36 71.8253C127.509 70.5065 126.09 69.2905 124.171 69.0193C122.251 68.748 120.569 69.6086 120.411 70.89Z" fill="#EFE6DA"/>
<path d="M122.725 137.225C122.725 137.225 130.2 84.3403 127.352 75.4919" stroke="#EFE6DA" stroke-width="2" stroke-miterlimit="10"/>
<path d="M124.548 75.9875C124.39 77.2689 125.932 77.6057 127.851 77.8582C129.771 78.1108 131.357 78.2417 131.497 76.9229C131.637 75.604 130.235 74.3881 128.316 74.1168C126.397 73.8456 124.705 74.7061 124.548 75.9875Z" fill="#EFE6DA"/>
<path d="M115.661 128.582C115.661 128.582 126.607 76.5674 132.311 69.3933" stroke="#EFE6DA" stroke-width="2" stroke-miterlimit="10"/>
<path d="M134.774 70.9086C134.485 72.1526 132.916 71.8439 131.014 71.4324C129.113 71.0208 127.588 70.497 127.877 69.2343C128.166 67.9716 129.937 67.3636 131.838 67.8032C133.74 68.2428 135.054 69.6552 134.774 70.9086Z" fill="#EFE6DA"/>
<path d="M229.056 78.8404C229.31 77.5506 229.65 76.2816 230.072 75.0429C231.755 70.0294 234.454 65.8204 235.961 65.4837C236.652 65.3262 237.368 65.3459 238.051 65.541C238.733 65.7361 239.362 66.1011 239.887 66.6061C238.397 69.2845 237.046 72.0479 235.839 74.8839C232.333 82.9279 237.153 87.2866 241.245 89.3724C244.041 90.7941 251.691 90.1581 256.274 89.6062C256.722 91.1482 256.862 92.7731 256.686 94.3765C256.283 98.1179 255.214 99.8483 248.151 99.9231C247.651 99.9231 247.143 99.9231 246.635 99.9231C244.498 99.8496 242.379 99.4754 240.334 98.81C238.886 98.3356 237.501 97.6628 236.215 96.8084C234.704 95.809 233.362 94.544 232.246 93.067C231.312 91.8507 230.529 90.5116 229.915 89.0824C229.669 88.5212 229.433 87.9132 229.222 87.2866C228.826 86.0838 228.616 84.8201 228.6 83.5452C228.577 81.9632 228.73 80.3838 229.056 78.8404Z" fill="#F4D3CE"/>
<path d="M244.156 92.6927C246.557 92.4308 246.101 94.7505 246.425 98.0897C246.478 98.7164 246.557 99.315 246.636 99.8949C244.499 99.8215 242.38 99.4472 240.335 98.7818C240.195 95.6297 241.851 92.9453 244.156 92.6927Z" fill="#E88C80"/>
<path d="M232.211 93.0389C233.341 90.9998 235.348 89.9709 236.987 90.7005C238.818 91.533 237.635 93.0014 236.636 95.5456C236.47 95.9571 236.321 96.378 236.181 96.7709C234.67 95.7743 233.328 94.5125 232.211 93.0389Z" fill="#E88C80"/>
<path d="M228.601 83.5357C229.237 83.0864 229.991 82.8667 230.753 82.9088C231.515 82.9509 232.244 83.2525 232.833 83.7695C234.174 85.1819 232.649 86.0424 230.932 87.9038C230.581 88.2779 230.24 88.6801 229.915 89.0542C229.67 88.493 229.433 87.885 229.223 87.2584C228.828 86.0616 228.618 84.8043 228.601 83.5357Z" fill="#E88C80"/>
<path d="M229.056 78.8404C229.31 77.5505 229.65 76.2815 230.072 75.0429C231.825 74.9119 233.306 75.9782 233.394 77.4093C233.481 78.8404 232.29 78.5504 230.537 78.6814C230.02 78.7188 229.512 78.7936 229.056 78.8404Z" fill="#E88C80"/>
<path d="M235.839 74.8838C237.046 72.0478 238.398 69.2844 239.888 66.606C240.212 66.8788 240.471 67.2294 240.645 67.6291C240.818 68.0288 240.901 68.4666 240.887 68.9069C240.685 70.7776 238.95 70.5531 237.951 79.8505C236.952 89.1478 248.677 86.8094 252.253 86.3043C254.338 86.0144 255.644 87.5483 256.275 89.6061C251.692 90.158 244.006 90.794 241.246 89.3723C237.154 87.2864 232.334 82.9277 235.839 74.8838Z" fill="#EAC8C5"/>
<path d="M240.887 68.9068C240.887 68.9068 249.72 60.5729 248.274 57.5704C247.713 56.4013 242.744 59.7966 242.552 61.5831C242.552 61.5831 244.996 55.2882 244.12 55.1853C243.244 55.0824 235.944 63.1077 235.962 65.4741L240.887 68.9068Z" fill="#D15F56"/>
<path d="M241.64 58.6462C241.64 58.6462 239.45 63.1546 239.353 65.6894L241.64 58.6462Z" fill="#BF4E49"/>
<path d="M245.566 61.2185C245.566 61.2185 241.535 63.9123 240.239 66.0355L245.566 61.2185Z" fill="#BF4E49"/>
<path d="M235.401 89.7932C235.661 88.5233 236.001 87.2734 236.417 86.0518C238.1 81.029 240.799 76.8199 242.315 76.4925C242.999 76.3267 243.71 76.3352 244.391 76.5172C245.071 76.6992 245.702 77.0496 246.232 77.5401C244.738 80.2179 243.384 82.9813 242.175 85.8179C238.669 93.8713 243.498 98.2206 247.582 100.316C250.377 101.738 258.036 101.101 262.619 100.55C263.06 102.09 263.197 103.711 263.022 105.311C262.628 109.052 261.559 110.782 254.487 110.857C253.987 110.857 253.488 110.857 252.98 110.857C250.842 110.786 248.723 110.408 246.679 109.735C245.23 109.267 243.845 108.597 242.56 107.742C241.046 106.744 239.701 105.479 238.582 104.001C237.653 102.786 236.873 101.451 236.26 100.026C236.014 99.4553 235.778 98.8473 235.559 98.2206C235.165 97.0174 234.958 95.7537 234.945 94.4792C234.923 92.9035 235.076 91.3305 235.401 89.7932Z" fill="#F4D3CE"/>
<path d="M250.5 103.636C252.901 103.365 252.454 105.685 252.769 109.033C252.831 109.651 252.91 110.249 252.988 110.839C250.851 110.767 248.731 110.39 246.688 109.716C246.548 106.564 248.204 103.88 250.5 103.636Z" fill="#E88C80"/>
<path d="M238.59 103.973C239.729 101.943 241.736 100.905 243.366 101.644C245.197 102.467 244.023 103.945 243.015 106.489C242.858 106.901 242.709 107.312 242.569 107.715C241.054 106.716 239.709 105.451 238.59 103.973Z" fill="#E88C80"/>
<path d="M234.954 94.4699C235.588 94.02 236.341 93.7998 237.102 93.8419C237.863 93.884 238.59 94.1862 239.178 94.7037C240.518 96.1067 239.002 96.9673 237.285 98.8286C236.934 99.2121 236.593 99.6049 236.268 99.9884C236.023 99.4179 235.786 98.8099 235.567 98.1832C235.176 96.9889 234.969 95.7349 234.954 94.4699Z" fill="#E88C80"/>
<path d="M235.401 89.793C235.662 88.5231 236.001 87.2732 236.418 86.0516C238.17 85.9113 239.651 86.987 239.748 88.418C239.844 89.8491 238.635 89.5498 236.882 89.6808L235.401 89.793Z" fill="#E88C80"/>
<path d="M242.183 85.8178C243.39 82.9815 244.741 80.218 246.232 77.54C246.554 77.8163 246.813 78.1688 246.986 78.5697C247.159 78.9706 247.243 79.409 247.231 79.8503C247.029 81.721 245.285 81.4965 244.295 90.7845C243.305 100.073 254.995 97.7435 258.605 97.2758C260.691 96.9859 261.988 98.5198 262.628 100.587C258.044 101.139 250.359 101.775 247.59 100.353C243.506 98.2112 238.678 93.8712 242.183 85.8178Z" fill="#EAC8C5"/>
<path d="M247.24 79.8506C247.24 79.8506 256.064 71.5073 254.627 68.5142C254.058 67.3356 249.098 70.7309 248.905 72.5175C248.905 72.5175 251.341 66.2319 250.474 66.1197C249.606 66.0075 242.298 74.0421 242.315 76.4085L247.24 79.8506Z" fill="#D15F56"/>
<path d="M247.985 69.5897C247.985 69.5897 245.803 74.0887 245.697 76.6235L247.985 69.5897Z" fill="#BF4E49"/>
<path d="M251.911 72.162C251.911 72.162 247.88 74.8464 246.591 76.979L251.911 72.162Z" fill="#BF4E49"/>
<path d="M217.919 83.7507C218.177 82.465 218.517 81.1994 218.935 79.9626C220.618 74.9398 223.317 70.7307 224.824 70.4033C225.516 70.2447 226.233 70.2628 226.916 70.4562C227.6 70.6497 228.232 71.0129 228.759 71.5164C227.265 74.1942 225.911 76.9576 224.701 79.7942C221.196 87.8475 226.025 92.1969 230.108 94.2921C232.904 95.7138 240.554 95.0778 245.146 94.5259C245.587 96.0661 245.724 97.6872 245.549 99.2868C245.155 103.028 244.077 104.759 237.014 104.833C236.514 104.833 236.015 104.833 235.498 104.833C233.36 104.761 231.241 104.384 229.197 103.711C227.748 103.243 226.363 102.573 225.078 101.719C223.564 100.72 222.219 99.4551 221.1 97.9773C220.171 96.7626 219.391 95.4268 218.777 94.0021C218.523 93.4316 218.296 92.8236 218.076 92.1969C217.683 90.9937 217.476 89.7299 217.463 88.4555C217.44 86.8735 217.593 85.2942 217.919 83.7507Z" fill="#F4D3CE"/>
<path d="M233.017 97.6126C235.419 97.3413 234.972 99.661 235.287 103.01C235.348 103.627 235.427 104.225 235.497 104.815C233.36 104.743 231.241 104.365 229.197 103.692C229.065 100.54 230.713 97.8558 233.017 97.6126Z" fill="#E88C80"/>
<path d="M221.108 97.9494C222.247 95.9197 224.254 94.8814 225.884 95.6203C227.716 96.4435 226.541 97.9213 225.534 100.465C225.376 100.877 225.227 101.289 225.087 101.691C223.572 100.692 222.227 99.4272 221.108 97.9494Z" fill="#E88C80"/>
<path d="M217.471 88.4557C218.106 88.0058 218.859 87.7856 219.62 87.8277C220.38 87.8698 221.108 88.172 221.695 88.6896C223.036 90.0926 221.511 90.9531 219.802 92.8144C219.452 93.1979 219.11 93.5908 218.786 93.9743C218.532 93.4037 218.304 92.7957 218.085 92.1691C217.694 90.9747 217.487 89.7207 217.471 88.4557Z" fill="#E88C80"/>
<path d="M217.919 83.7508C218.177 82.4651 218.517 81.1995 218.935 79.9626C220.688 79.8223 222.169 80.898 222.265 82.3291C222.361 83.7601 221.152 83.4608 219.4 83.5918L217.919 83.7508Z" fill="#E88C80"/>
<path d="M224.701 79.7944C225.91 76.9578 227.265 74.1944 228.758 71.5166C229.081 71.7929 229.339 72.1454 229.513 72.5463C229.686 72.9472 229.77 73.3856 229.757 73.8269C229.556 75.6976 227.812 75.4731 226.822 84.7611C225.832 94.0491 237.539 91.7201 241.123 91.215C243.209 90.925 244.506 92.459 245.146 94.5261C240.554 95.078 232.877 95.714 230.108 94.2923C226.024 92.1971 221.196 87.8477 224.701 79.7944Z" fill="#EAC8C5"/>
<path d="M229.757 73.8268C229.757 73.8268 238.582 65.4835 237.144 62.4904C236.575 61.3118 231.615 64.7071 231.422 66.4937C231.422 66.4937 233.858 60.2081 232.991 60.0959C232.123 59.9836 224.806 68.0183 224.823 70.3847L229.757 73.8268Z" fill="#D15F56"/>
<path d="M230.572 63.6691C230.572 63.6691 228.39 68.1681 228.285 70.7029L230.572 63.6691Z" fill="#BF4E49"/>
<path d="M234.499 66.2411C234.499 66.2411 230.459 68.9349 229.179 71.0862L234.499 66.2411Z" fill="#BF4E49"/>
<path d="M196.379 99.1933C196.379 100.019 196.285 100.842 196.098 101.644C195.672 103.303 194.889 104.832 193.812 106.112C192.735 107.391 191.394 108.385 189.894 109.014C188.476 109.635 186.957 109.952 185.425 109.95C179.378 109.95 174.471 105.133 174.471 99.1933C174.471 93.4971 176.889 85.397 184.811 85.5653C185.144 85.5653 185.503 85.5653 185.863 85.6308C187.278 85.7794 188.674 86.0931 190.025 86.5661C196.343 88.7549 196.379 94.1799 196.379 99.1933Z" fill="#CEBFBE"/>
<path d="M200.76 98.2579C200.759 99.7093 200.46 101.143 199.884 102.458C198.586 102.412 197.304 102.137 196.09 101.644C196.277 100.842 196.371 100.019 196.37 99.1933C196.37 94.1798 196.37 88.7548 190.017 86.5193C190.171 85.9146 190.361 85.321 190.586 84.7422C200.708 85.9581 200.76 92.384 200.76 98.2579Z" fill="#B2A4A4"/>
<path d="M196.379 102.935C196.38 103.761 196.285 104.584 196.098 105.385C194.166 104.652 192.487 103.31 191.286 101.536C190.084 99.7624 189.415 97.6406 189.368 95.452C189.367 93.6979 189.588 91.9516 190.026 90.2609C196.344 92.4963 196.379 97.9213 196.379 102.935Z" fill="#CEBFBE"/>
<path d="M211.276 91.7108C211.276 97.6502 206.369 102.467 200.323 102.467H199.893C200.469 101.152 200.768 99.7189 200.769 98.2676C200.769 92.3936 200.717 85.9678 190.604 84.7518C192.12 80.7953 195.205 77.5684 200.769 78.2044C211.224 79.2613 211.276 85.7714 211.276 91.7108Z" fill="#CEBFBE"/>
<path d="M219.163 101.064C219.161 102.515 218.862 103.949 218.286 105.264C216.988 105.218 215.706 104.943 214.492 104.45C214.679 103.649 214.773 102.825 214.772 101.999C214.772 96.986 214.772 91.561 208.419 89.3255C208.498 89.0169 203.968 88.5118 204.257 88.3902C207.762 87.4548 206.886 87.4548 208.989 87.4548C219.11 88.7643 219.163 95.1901 219.163 101.064Z" fill="#D1CBCB"/>
<path d="M208.428 89.3257C207.077 88.8526 205.681 88.5389 204.265 88.3903C203.906 88.3903 203.547 88.3248 203.214 88.3248C195.327 88.1565 192.873 96.2566 192.873 101.953C192.873 107.892 197.781 112.709 203.827 112.709C205.36 112.712 206.878 112.394 208.297 111.774C209.796 111.145 211.138 110.151 212.215 108.871C213.292 107.592 214.074 106.062 214.501 104.403C214.688 103.602 214.782 102.779 214.781 101.953C214.781 96.9861 214.746 91.5611 208.428 89.3257Z" fill="#8C8585"/>
<path d="M229.679 94.5168C229.679 100.456 224.771 105.273 218.725 105.273H218.295C218.871 103.958 219.17 102.525 219.172 101.074C219.172 95.1996 219.119 88.7738 209.006 87.5579C210.522 83.6013 213.607 80.3744 219.172 81.0104C229.626 82.0674 229.679 88.5774 229.679 94.5168Z" fill="#E8E6E6"/>
<path opacity="0.53" d="M224.99 101.251C202.977 97.7062 191.997 98.7257 177.1 105.273C161.151 112.279 138.822 123.625 139.418 129.592C140.014 135.56 147.13 126.562 150.057 128.806C152.984 131.051 198.885 115.384 211.898 116.853C224.911 118.321 248.405 105.03 224.99 101.251Z" fill="#994633"/>
<path d="M230.625 102.888C208.612 99.3056 200.156 99.1466 185.057 108.594C169.958 118.041 150.556 119.322 151.117 125.561C151.678 131.8 152.616 129.835 155.499 132.174C158.382 134.512 204.432 117.854 217.445 119.285C230.459 120.716 254.031 106.695 230.625 102.888Z" fill="#BC5C3F"/>
<path d="M196.353 107.78C195.967 107.191 204.844 104.974 213.879 104.59C221.547 104.235 229.433 105.413 230.406 106.919C224.629 105.759 218.757 105.23 212.88 105.339C204.511 105.694 196.694 108.322 196.353 107.78Z" fill="#EFDBD3"/>
<path d="M165.778 120.192C165.646 120.585 171.123 119.341 176.399 117.218C180.903 115.403 185.293 112.765 185.626 111.774C182.46 113.843 179.139 115.63 175.698 117.115C170.869 119.098 165.892 119.836 165.778 120.192Z" fill="#EFDBD3"/>
<path d="M206.115 110.633C206.159 111.409 208.297 110.969 210.952 110.81C213.608 110.651 215.737 109.875 215.693 109.117C215.649 108.36 213.511 108.781 210.856 108.94C208.201 109.099 206.08 109.856 206.115 110.633Z" fill="#EFDBD3"/>
<path d="M195.467 111.203C195.511 111.98 197.088 111.577 199.051 111.465C201.014 111.353 202.557 110.623 202.557 109.847C202.557 109.071 200.935 109.473 198.972 109.594C197.009 109.716 195.406 110.436 195.467 111.203Z" fill="#EFDBD3"/>
<path d="M199.323 116.385C199.367 117.161 200.944 116.759 202.907 116.638C204.87 116.516 206.412 115.805 206.412 115.029C206.412 114.252 204.8 114.655 202.837 114.776C200.874 114.898 199.279 115.618 199.323 116.385Z" fill="#EFDBD3"/>
<path d="M187.221 116.535C187.405 117.283 188.877 116.535 190.788 116.048C192.698 115.562 194.091 114.495 193.916 113.747C193.741 112.999 192.26 113.747 190.35 114.234C188.439 114.72 187.046 115.786 187.221 116.535Z" fill="#EFDBD3"/>
<path d="M177.328 120.66C177.564 121.389 178.826 120.603 180.491 119.996C182.156 119.388 183.321 118.293 183.12 117.564C182.918 116.834 181.621 117.564 179.956 118.228C178.291 118.892 177.091 119.911 177.328 120.66Z" fill="#EFDBD3"/>
<path d="M159.819 125.636C159.968 126.393 161.309 125.795 163.035 125.421C164.761 125.047 166.049 124.13 165.909 123.372C165.769 122.615 164.42 123.213 162.693 123.587C160.967 123.962 159.679 124.878 159.819 125.636Z" fill="#EFDBD3"/>
<path d="M168.828 123.914C168.968 124.672 169.879 124.167 171.062 123.914C172.245 123.662 173.104 122.829 172.955 122.044C172.806 121.258 171.903 121.791 170.72 122.044C169.537 122.296 168.687 123.157 168.828 123.914Z" fill="#EFDBD3"/>
<path d="M173.998 125.598C174.173 126.346 175.058 125.795 176.232 125.467C177.407 125.14 178.213 124.289 178.038 123.531C177.862 122.773 176.977 123.335 175.803 123.662C174.629 123.989 173.823 124.85 173.998 125.598Z" fill="#EFDBD3"/>
<path d="M216.201 115.74C216.087 116.507 217.077 116.366 218.295 116.572C219.513 116.778 220.556 116.329 220.67 115.562C220.784 114.795 219.794 114.935 218.576 114.729C217.358 114.524 216.315 114.973 216.201 115.74Z" fill="#EFDBD3"/>
<path d="M184.89 122.044C185.013 122.802 186.371 122.24 188.106 121.913C189.841 121.586 191.156 120.706 191.024 119.939C190.893 119.172 189.543 119.743 187.808 120.07C186.073 120.398 184.75 121.277 184.89 122.044Z" fill="#EFDBD3"/>
<path d="M222.572 112.157C222.3 113.757 224.675 113.551 227.479 114.084C230.283 114.617 232.737 113.747 233.026 112.157C233.315 110.567 232.325 109.276 229.521 108.743C226.716 108.21 222.843 110.558 222.572 112.157Z" fill="#EFDBD3"/>
<path d="M208.717 106.171C186.529 104.076 178.09 104.497 163.543 114.935C148.996 125.374 129.744 127.974 130.681 134.156C131.619 140.339 132.434 138.328 135.475 140.461C138.516 142.593 183.453 122.848 196.536 123.437C209.62 124.027 232.299 108.406 208.717 106.171Z" fill="#BC5C3F"/>
<path d="M174.804 113.373C174.392 112.812 183.111 110.043 192.067 109.015C199.7 108.135 207.648 108.79 208.717 110.221C202.877 109.45 196.978 109.318 191.112 109.828C182.822 110.736 175.181 113.888 174.804 113.373Z" fill="#EFDBD3"/>
<path d="M145.018 127.824C144.913 128.217 150.276 126.618 155.455 124.13C159.836 122.016 164.06 119.098 164.332 118.087C161.296 120.368 158.086 122.374 154.736 124.083C150.004 126.393 145.114 127.46 145.018 127.824Z" fill="#EFDBD3"/>
<path d="M184.715 115.562C184.803 116.329 186.915 115.749 189.553 115.412C192.19 115.075 194.276 114.177 194.188 113.41C194.101 112.644 191.989 113.214 189.351 113.551C186.713 113.888 184.636 114.795 184.715 115.562Z" fill="#EFDBD3"/>
<path d="M174.129 116.853C174.216 117.62 175.759 117.115 177.713 116.853C179.667 116.591 181.218 115.777 181.096 114.982C180.973 114.187 179.466 114.72 177.511 114.982C175.557 115.244 174.041 116.086 174.129 116.853Z" fill="#EFDBD3"/>
<path d="M178.274 121.763C178.362 122.53 179.913 122.025 181.867 121.763C183.821 121.501 185.372 120.688 185.249 119.893C185.127 119.098 183.611 119.631 181.657 119.893C179.702 120.155 178.195 120.996 178.274 121.763Z" fill="#EFDBD3"/>
<path d="M166.208 122.727C166.435 123.466 167.864 122.642 169.713 121.997C171.562 121.352 172.92 120.229 172.692 119.49C172.465 118.751 171.045 119.575 169.187 120.22C167.329 120.865 165.989 121.988 166.208 122.727Z" fill="#EFDBD3"/>
<path d="M156.576 127.497C156.857 128.217 158.066 127.347 159.696 126.627C161.326 125.907 162.413 124.756 162.141 124.017C161.869 123.279 160.651 124.176 159.021 124.897C157.391 125.617 156.305 126.786 156.576 127.497Z" fill="#EFDBD3"/>
<path d="M139.4 133.652C139.593 134.4 140.899 133.708 142.599 133.221C144.299 132.735 145.526 131.734 145.342 130.986C145.158 130.238 143.843 130.93 142.143 131.416C140.443 131.902 139.216 132.903 139.4 133.652Z" fill="#EFDBD3"/>
<path d="M148.286 131.332C148.479 132.08 149.347 131.509 150.521 131.173C151.695 130.836 152.484 129.966 152.274 129.218C152.063 128.47 151.213 129.031 150.039 129.368C148.865 129.704 148.085 130.584 148.286 131.332Z" fill="#EFDBD3"/>
<path d="M153.545 132.66C153.773 133.399 154.614 132.782 155.771 132.389C156.927 131.996 157.681 131.07 157.453 130.331C157.225 129.592 156.384 130.21 155.227 130.602C154.07 130.995 153.343 131.884 153.545 132.66Z" fill="#EFDBD3"/>
<path d="M195.081 119.977C195.011 120.753 196.019 120.547 197.22 120.669C198.42 120.791 199.463 120.276 199.533 119.5C199.603 118.723 198.595 118.929 197.395 118.808C196.194 118.686 195.152 119.21 195.081 119.977Z" fill="#EFDBD3"/>
<path d="M164.192 128.376C164.358 129.134 165.682 128.479 167.399 128.03C169.117 127.581 170.361 126.627 170.195 125.869C170.028 125.112 168.696 125.776 166.987 126.215C165.278 126.655 164.017 127.628 164.192 128.376Z" fill="#EFDBD3"/>
<path d="M201.233 115.983C201.067 117.601 203.424 117.236 206.246 117.582C209.068 117.928 211.504 116.89 211.67 115.272C211.837 113.654 210.794 112.466 207.972 112.11C205.151 111.755 201.409 114.365 201.233 115.983Z" fill="#EFDBD3"/>
<path d="M242.017 108.977C219.828 106.882 211.389 107.303 196.843 117.741C182.296 128.18 163.043 130.78 163.981 136.963C164.919 143.145 165.734 141.134 168.774 143.267C171.815 145.399 216.753 125.654 229.836 126.243C242.919 126.833 265.598 111.212 242.017 108.977Z" fill="#BC5C3F"/>
<path d="M208.104 116.179C207.692 115.618 216.411 112.849 225.367 111.821C233 110.941 240.948 111.596 242.017 113.027C236.177 112.256 230.278 112.124 224.412 112.634C216.122 113.542 208.481 116.694 208.104 116.179Z" fill="#EFDBD3"/>
<path d="M178.318 130.63C178.213 131.023 183.576 129.424 188.755 126.936C193.136 124.822 197.36 121.903 197.632 120.893C194.596 123.174 191.386 125.18 188.036 126.889C183.304 129.199 178.414 130.265 178.318 130.63Z" fill="#EFDBD3"/>
<path d="M218.015 118.368C218.103 119.135 220.214 118.555 222.852 118.218C225.49 117.881 227.575 116.983 227.488 116.217C227.4 115.45 225.288 116.02 222.651 116.357C220.013 116.694 217.936 117.601 218.015 118.368Z" fill="#EFDBD3"/>
<path d="M207.428 119.659C207.516 120.426 209.058 119.921 211.012 119.659C212.967 119.397 214.518 118.583 214.395 117.788C214.272 116.993 212.765 117.526 210.811 117.788C208.857 118.05 207.341 118.892 207.428 119.659Z" fill="#EFDBD3"/>
<path d="M211.574 124.569C211.662 125.336 213.213 124.831 215.167 124.569C217.121 124.307 218.672 123.494 218.549 122.699C218.427 121.904 216.911 122.437 214.956 122.699C213.002 122.961 211.495 123.802 211.574 124.569Z" fill="#EFDBD3"/>
<path d="M199.507 125.533C199.735 126.272 201.164 125.448 203.013 124.803C204.862 124.158 206.22 123.035 205.992 122.296C205.764 121.557 204.345 122.381 202.487 123.026C200.629 123.671 199.288 124.794 199.507 125.533Z" fill="#EFDBD3"/>
<path d="M189.877 130.303C190.157 131.023 191.367 130.153 192.996 129.433C194.626 128.713 195.713 127.562 195.441 126.823C195.17 126.085 193.952 126.982 192.322 127.703C190.692 128.423 189.605 129.592 189.877 130.303Z" fill="#EFDBD3"/>
<path d="M172.701 136.458C172.894 137.206 174.2 136.514 175.9 136.027C177.6 135.541 178.826 134.54 178.642 133.792C178.458 133.044 177.144 133.736 175.444 134.222C173.744 134.708 172.517 135.709 172.701 136.458Z" fill="#EFDBD3"/>
<path d="M181.586 134.138C181.779 134.886 182.647 134.316 183.821 133.979C184.995 133.642 185.784 132.772 185.574 132.024C185.363 131.276 184.513 131.837 183.339 132.174C182.165 132.511 181.385 133.39 181.586 134.138Z" fill="#EFDBD3"/>
<path d="M186.844 135.466C187.072 136.205 187.913 135.588 189.07 135.195C190.227 134.802 190.981 133.876 190.753 133.137C190.525 132.398 189.684 133.016 188.527 133.408C187.37 133.801 186.643 134.69 186.844 135.466Z" fill="#EFDBD3"/>
<path d="M228.381 122.783C228.311 123.559 229.319 123.353 230.52 123.475C231.72 123.597 232.763 123.082 232.833 122.306C232.903 121.529 231.895 121.735 230.695 121.614C229.494 121.492 228.451 122.016 228.381 122.783Z" fill="#EFDBD3"/>
<path d="M197.491 131.182C197.658 131.94 198.981 131.285 200.699 130.836C202.416 130.387 203.66 129.433 203.494 128.675C203.327 127.918 201.995 128.582 200.287 129.022C198.578 129.461 197.316 130.434 197.491 131.182Z" fill="#EFDBD3"/>
<path d="M234.533 118.789C234.367 120.407 236.724 120.042 239.546 120.388C242.368 120.735 244.804 119.696 244.97 118.078C245.137 116.46 244.094 115.272 241.272 114.917C238.451 114.561 234.709 117.171 234.533 118.789Z" fill="#EFDBD3"/>
<path opacity="0.53" d="M222.571 114.486C200.55 110.904 192.102 110.745 177.003 120.192C161.904 129.639 142.45 130.948 143.011 137.159C143.572 143.37 144.509 141.434 147.393 143.772C150.276 146.11 196.317 129.433 209.339 130.892C222.361 132.351 245.96 118.302 222.571 114.486Z" fill="#994633"/>
<path d="M227.996 117.853C205.983 114.271 197.526 114.112 182.427 123.559C167.329 133.006 147.927 134.287 148.488 140.526C149.049 146.765 149.986 144.801 152.869 147.139C155.752 149.477 201.803 132.819 214.816 134.25C227.829 135.681 251.402 121.66 227.996 117.853Z" fill="#BC5C3F"/>
<path d="M193.723 122.745C193.338 122.156 202.215 119.986 211.249 119.556C218.917 119.2 226.804 120.379 227.777 121.885C222 120.725 216.128 120.195 210.25 120.304C201.882 120.66 194.065 123.288 193.723 122.745Z" fill="#EFDBD3"/>
<path d="M163.149 135.157C163.017 135.55 168.494 134.306 173.77 132.183C178.274 130.369 182.664 127.731 182.997 126.739C179.831 128.809 176.511 130.595 173.069 132.08C168.24 134.063 163.263 134.802 163.149 135.157Z" fill="#EFDBD3"/>
<path d="M203.486 125.598C203.529 126.375 205.668 125.935 208.323 125.776C210.978 125.617 213.108 124.841 213.064 124.083C213.02 123.325 210.882 123.746 208.227 123.905C205.571 124.064 203.451 124.822 203.486 125.598Z" fill="#EFDBD3"/>
<path d="M192.838 126.169C192.882 126.945 194.459 126.543 196.422 126.431C198.385 126.318 199.928 125.589 199.928 124.813C199.928 124.036 198.306 124.438 196.344 124.56C194.381 124.682 192.777 125.402 192.838 126.169Z" fill="#EFDBD3"/>
<path d="M196.694 131.351C196.738 132.127 198.315 131.725 200.278 131.603C202.241 131.481 203.783 130.771 203.783 129.994C203.783 129.218 202.171 129.62 200.208 129.742C198.245 129.863 196.65 130.584 196.694 131.351Z" fill="#EFDBD3"/>
<path d="M184.592 131.5C184.776 132.249 186.248 131.5 188.158 131.014C190.069 130.528 191.462 129.461 191.287 128.713C191.111 127.965 189.63 128.713 187.72 129.199C185.81 129.686 184.416 130.752 184.592 131.5Z" fill="#EFDBD3"/>
<path d="M174.699 135.625C174.935 136.355 176.197 135.569 177.862 134.961C179.527 134.353 180.693 133.259 180.491 132.529C180.289 131.8 178.993 132.529 177.328 133.193C175.663 133.857 174.462 134.877 174.699 135.625Z" fill="#EFDBD3"/>
<path d="M157.19 140.601C157.339 141.359 158.68 140.76 160.406 140.386C162.132 140.012 163.421 139.095 163.28 138.338C163.14 137.58 161.791 138.179 160.064 138.553C158.338 138.927 157.05 139.843 157.19 140.601Z" fill="#EFDBD3"/>
<path d="M166.199 138.88C166.339 139.638 167.251 139.133 168.434 138.88C169.617 138.628 170.476 137.795 170.327 137.01C170.178 136.224 169.275 136.757 168.092 137.01C166.909 137.262 166.059 138.123 166.199 138.88Z" fill="#EFDBD3"/>
<path d="M171.368 140.564C171.544 141.312 172.429 140.76 173.603 140.433C174.777 140.105 175.583 139.254 175.408 138.497C175.233 137.739 174.348 138.3 173.173 138.628C171.999 138.955 171.193 139.815 171.368 140.564Z" fill="#EFDBD3"/>
<path d="M213.572 130.705C213.458 131.472 214.448 131.332 215.666 131.538C216.884 131.743 217.927 131.294 218.041 130.527C218.155 129.761 217.165 129.901 215.947 129.695C214.729 129.489 213.686 129.938 213.572 130.705Z" fill="#EFDBD3"/>
<path d="M182.262 137.009C182.384 137.767 183.743 137.206 185.478 136.879C187.213 136.551 188.527 135.672 188.396 134.905C188.264 134.138 186.915 134.709 185.18 135.036C183.445 135.363 182.121 136.243 182.262 137.009Z" fill="#EFDBD3"/>
<path d="M219.943 127.123C219.671 128.722 222.046 128.517 224.85 129.05C227.654 129.583 230.108 128.713 230.397 127.123C230.686 125.533 229.696 124.242 226.892 123.709C224.088 123.176 220.215 125.524 219.943 127.123Z" fill="#EFDBD3"/>
<path d="M126.896 112.083C126.896 122.371 114.697 136.14 100.606 133.465C87.1637 130.911 73.6948 125.093 73.6948 114.758C73.6948 104.422 88.8287 89.3723 102.517 89.3723C116.205 89.3723 126.896 101.756 126.896 112.083Z" fill="#68321F"/>
<path d="M102.517 92.7114C102.517 92.7114 86.8656 107.406 89.3719 114.758C91.8782 122.109 106.241 96.7147 102.517 92.7114Z" fill="#F4F4F4"/>
<path d="M110.167 108.023C110.167 108.023 95.4975 94.8347 88.1628 96.9486C80.828 99.0624 106.171 111.194 110.167 108.023Z" fill="#F4F4F4"/>
<path opacity="0.15" d="M29.2745 98.4639C29.2745 98.4639 77.1037 81.5622 88.7937 79.757C100.484 77.9517 144.632 81.0664 151.012 78.8216C157.391 76.5768 188.65 79.5605 213.23 83.4983C222.458 84.9762 266.685 86.5008 266.685 97.1544C266.685 107.808 261.129 144.81 144.746 135.625C28.3632 126.44 34.6025 126.524 29.2745 98.4639Z" fill="#47201A"/>
<path d="M56.4927 132.155C55.222 132.155 41.7356 122.708 40.202 119.995C38.6685 117.283 36.1096 95.4893 37.3891 94.1237C38.6685 92.7581 55.1957 107.677 55.1957 107.677C55.1957 107.677 57.7721 132.155 56.4927 132.155Z" fill="#E2E2E2"/>
<path d="M85.3849 118.789C85.3849 118.789 57.7722 132.127 56.4665 132.127C55.1608 132.127 55.1959 107.677 55.1959 107.677C55.1959 107.677 84.5611 92.5994 85.8668 93.9837C87.1725 95.368 85.8668 117.957 85.8668 117.957C85.86 118.128 85.8121 118.294 85.7277 118.44C85.6433 118.586 85.5252 118.706 85.3849 118.789Z" fill="#E8EAE9"/>
<path d="M85.8673 94.0398L68.2446 82.9746C67.9592 82.7998 67.636 82.7079 67.307 82.7079C66.978 82.7079 66.6547 82.7998 66.3693 82.9746C66.3693 82.9746 37.3896 92.749 37.3896 94.1052C37.3896 95.4615 55.1963 107.677 55.1963 107.677L85.8673 94.0398Z" fill="#EFEFEF"/>
<path d="M46.0125 94.1891C46.0125 94.1891 64.5552 85.6307 66.6847 85.6307C66.6847 85.6307 46.3805 95.2741 46.0125 94.1891Z" fill="#D8D8D8"/>
<path d="M49.5175 97.94C49.5175 97.94 67.2803 90.3076 69.3134 90.3076C69.3134 90.3076 49.868 98.9034 49.5175 97.94Z" fill="#D8D8D8"/>
<path d="M56.5282 100.737C56.5282 100.737 75.071 92.1781 77.2004 92.1781C77.2004 92.1781 56.8962 101.822 56.5282 100.737Z" fill="#D8D8D8"/>
<path d="M275.247 98.7256C275.247 127.656 261.226 187.583 150.372 187.583C57.4304 187.583 33.4808 150.301 27.4605 120.239C27.2064 118.976 26.9873 117.722 26.7945 116.497C28.8539 116.497 30.6766 116.497 32.0524 116.497C33.8576 116.497 37.1788 115.216 37.7309 114.627C38.283 114.037 36.0659 114.308 35.8906 113.354C35.5489 113.102 35.2159 112.84 34.8916 112.578L34.322 112.12L34.0767 111.914L33.6823 111.577C33.4983 111.428 33.323 111.269 33.1478 111.11L32.6308 110.642L32.14 110.174C31.8158 109.866 31.4916 109.548 31.1936 109.239C30.8957 108.93 30.6591 108.659 30.4049 108.369C29.4645 107.316 28.6167 106.174 27.8724 104.955L27.6533 104.581C27.3274 104.021 27.0347 103.44 26.777 102.841C26.6455 102.542 26.5229 102.243 26.4089 101.906C26.3476 101.737 26.2863 101.569 26.2337 101.401C26.1811 101.232 26.1198 101.055 26.0672 100.886C25.8475 100.138 25.6863 99.3715 25.5852 98.5947C25.5852 98.4544 25.5852 98.3234 25.5852 98.1831C25.5852 98.0428 25.5852 97.9119 25.5852 97.7809C25.589 97.7561 25.589 97.7309 25.5852 97.7061C25.6553 97.6406 25.8218 97.7061 25.9971 97.7809C26.1723 97.8558 26.4265 97.9493 26.4352 97.7809C26.7069 102.458 29.3008 106.929 33.8664 111.082C34.4885 111.652 35.1545 112.223 35.8644 112.784C47.2564 121.838 68.0426 129.237 94.3758 133.623C95.7954 133.857 97.2501 134.082 98.7573 134.306L101.921 134.774L102.981 134.914L105.207 135.213H105.312L106.557 135.372H106.758L108.09 135.531L110.184 135.775L111.587 135.924C112.936 136.074 114.294 136.214 115.67 136.345L119.684 136.701L120.902 136.804C122.14 136.903 123.385 136.997 124.635 137.084L125.599 137.15L129.262 137.374C131.987 137.524 134.747 137.655 137.534 137.748H138.113C140.067 137.804 142.038 137.86 144.019 137.889C146.157 137.926 148.31 137.945 150.477 137.945C152.645 137.945 154.798 137.926 156.936 137.889C158.916 137.889 160.888 137.804 162.842 137.748H163.42C166.207 137.655 168.967 137.524 171.693 137.374C176.311 137.112 180.85 136.766 185.284 136.345C186.66 136.214 188.019 136.074 189.368 135.924C192.657 135.575 195.87 135.179 199.007 134.736C200.69 134.506 202.355 134.259 204.002 133.998C204.879 133.857 205.755 133.726 206.631 133.577L208.577 133.249C209.725 133.053 210.855 132.847 211.986 132.632C214.241 132.214 216.443 131.771 218.593 131.304L219.592 131.098C222.022 130.555 224.394 129.994 226.708 129.414C227.759 129.143 228.802 128.872 229.827 128.591L231.422 128.152L232.246 127.918C233.42 127.581 234.568 127.244 235.699 126.898C243.684 124.559 251.422 121.346 258.79 117.311L259.377 116.918C260.63 116.189 261.813 115.431 262.882 114.664L263.942 113.925C264.564 113.476 265.169 112.99 265.739 112.559C265.932 112.41 266.124 112.26 266.308 112.101L266.948 111.559C267.132 111.409 267.307 111.25 267.483 111.091L268 110.623L268.49 110.156C268.815 109.847 269.139 109.529 269.437 109.22C269.735 108.912 269.971 108.64 270.225 108.35C271.166 107.298 272.014 106.155 272.758 104.936L272.977 104.562C273.303 104.002 273.596 103.421 273.853 102.822C273.985 102.523 274.107 102.224 274.221 101.887C274.283 101.719 274.344 101.55 274.397 101.382C274.449 101.214 274.511 101.036 274.563 100.868C274.783 100.119 274.944 99.3527 275.045 98.576C275.045 98.4357 275.045 98.3047 275.045 98.1644C275.045 98.0241 275.045 97.8932 275.045 97.7622C275.045 97.6313 275.045 97.678 275.045 97.6406C275.238 98.0148 275.247 98.3702 275.247 98.7256Z" fill="#353535"/>
<path d="M269.016 97.7903C266.86 118.087 214.553 134.334 150.346 134.334C88.8461 134.334 38.2653 119.425 32.2188 100.334C32.1658 100.191 32.1219 100.044 32.0873 99.8948C31.8898 99.2083 31.7519 98.5038 31.6754 97.7903H25.5413C25.5413 97.9212 25.5413 98.0615 25.5413 98.1925C25.5413 98.3234 25.5413 98.4637 25.5413 98.604C25.6423 99.3808 25.8035 100.147 26.0232 100.896C26.0758 101.064 26.1284 101.232 26.1897 101.41C26.2511 101.588 26.3037 101.747 26.365 101.915C26.4789 102.224 26.6016 102.523 26.733 102.85C26.9908 103.449 27.2835 104.03 27.6094 104.59L27.8284 104.964C28.5728 106.183 29.4205 107.326 30.361 108.378C30.618 108.671 30.8809 108.961 31.1497 109.248C31.4476 109.566 31.7718 109.884 32.0961 110.184L32.5868 110.651L33.1038 111.119C33.2791 111.278 33.4544 111.437 33.6384 111.587L34.0327 111.923L34.2781 112.129L34.8477 112.587C35.1719 112.849 35.5049 113.111 35.8467 113.364L36.6441 113.944C36.9859 114.196 37.3452 114.439 37.7045 114.683C38.8174 115.45 40.0004 116.207 41.2097 116.937L41.9458 117.367C49.3133 121.402 57.0512 124.615 65.0367 126.954C66.1671 127.3 67.3151 127.637 68.4893 127.974L69.3131 128.208L70.908 128.647C71.9333 128.928 72.9761 129.199 74.0276 129.47C76.3411 130.05 78.7071 130.612 81.1433 131.154L82.1423 131.36C84.298 131.827 86.5005 132.27 88.7497 132.688C89.8801 132.903 91.0106 133.109 92.1586 133.305L94.104 133.633H94.1916L95.4535 133.848L96.6978 134.044L99.4232 134.456L101.693 134.783L102.753 134.923L104.979 135.223H105.146L106.434 135.382H106.635L107.967 135.541L110.062 135.784L111.464 135.934C112.813 136.083 114.18 136.224 115.547 136.355L119.561 136.71L122.479 136.944L125.432 137.159L129.095 137.383C131.82 137.533 134.581 137.664 137.368 137.758H137.946C139.9 137.814 141.872 137.87 143.852 137.898C145.99 137.935 148.143 137.954 150.311 137.954C152.478 137.954 154.631 137.935 156.769 137.898C158.75 137.898 160.721 137.814 162.675 137.758H163.254C166.04 137.664 168.801 137.533 171.526 137.383C176.144 137.122 180.684 136.775 185.118 136.355C186.485 136.224 187.852 136.083 189.201 135.934C192.491 135.584 195.704 135.188 198.841 134.746C200.523 134.515 202.188 134.269 203.836 134.007C204.712 133.867 205.588 133.736 206.465 133.586L208.41 133.259C209.558 133.062 210.689 132.856 211.819 132.641C214.074 132.223 216.277 131.781 218.426 131.313L219.425 131.107C221.862 130.565 224.228 130.004 226.541 129.424C227.593 129.152 228.635 128.881 229.661 128.601L231.256 128.161L232.079 127.927C233.254 127.59 234.402 127.254 235.532 126.908C243.518 124.568 251.255 121.355 258.623 117.32L259.377 116.918C260.63 116.189 261.813 115.431 262.882 114.664L263.942 113.925C264.564 113.476 265.169 112.99 265.739 112.559L266.308 112.101L266.948 111.559C267.132 111.409 267.307 111.25 267.482 111.091L267.999 110.623L268.49 110.156C268.814 109.847 269.139 109.529 269.437 109.22C269.735 108.912 269.971 108.64 270.225 108.35C271.166 107.298 272.013 106.155 272.758 104.936L272.977 104.562C273.303 104.002 273.595 103.421 273.853 102.822C273.985 102.523 274.107 102.224 274.221 101.887C274.283 101.719 274.344 101.55 274.397 101.382C274.449 101.214 274.51 101.036 274.563 100.868C274.783 100.119 274.944 99.3527 275.045 98.576C275.045 98.4357 275.045 98.3047 275.045 98.1644C275.045 98.0241 275.045 97.8932 275.045 97.7622L269.016 97.7903Z" fill="#444444"/>
<path d="M37.7658 114.627C37.2138 115.216 33.8925 116.497 32.0873 116.497C30.6765 116.497 28.8537 116.497 26.8295 116.497C16.9271 116.291 1.53031 114.627 0.128212 102.664C-0.00367496 101.452 -0.00367496 100.228 0.128212 99.0157C1.07463 88.942 23.2453 80.0188 32.0873 80.0188C33.2142 79.8965 34.3462 80.1904 35.2946 80.8513C34.1302 81.7515 33.0155 82.7228 31.9559 83.7602C27.7671 87.8757 25.4975 92.2812 25.4975 96.855C25.4975 97.1294 25.4975 97.4006 25.4975 97.6688C25.5012 97.6935 25.5012 97.7188 25.4975 97.7436C25.4975 97.8745 25.4975 98.0148 25.4975 98.1458C25.4975 98.2767 25.4975 98.417 25.4975 98.5573C25.5985 99.3341 25.7597 100.101 25.9794 100.849C26.032 101.017 26.0846 101.195 26.1459 101.363C26.2073 101.532 26.2599 101.7 26.3212 101.868C26.4351 102.177 26.5578 102.476 26.6892 102.804C26.947 103.403 27.2397 103.984 27.5656 104.544L27.7846 104.918C28.529 106.136 29.3767 107.279 30.3172 108.332C30.5742 108.625 30.8371 108.915 31.1059 109.202C31.4038 109.52 31.728 109.838 32.0523 110.137L32.543 110.605L33.06 111.072C33.2353 111.231 33.4106 111.39 33.5946 111.54L33.9889 111.877L34.2343 112.082C34.4183 112.241 34.6111 112.391 34.8039 112.541C35.1281 112.803 37.3014 113.411 37.6432 113.663C37.725 113.704 37.7958 113.767 37.8493 113.845C37.9028 113.923 37.9371 114.014 37.9493 114.109C37.9615 114.205 37.9511 114.302 37.9191 114.393C37.887 114.483 37.8344 114.563 37.7658 114.627Z" fill="#444444"/>
<path d="M264.486 115.599C263.504 118.518 261.901 125.888 266.159 125.888C267.413 125.888 268.999 125.888 270.786 125.888C281.556 125.729 301.457 117.236 299.915 101.569V100.634C298.513 112.634 283.107 116.301 273.205 116.535C271.146 116.535 269.323 116.535 267.947 116.535C266.107 116.497 265.038 116.189 264.486 115.599Z" fill="#353535"/>
<path d="M262.234 114.627C262.786 115.216 266.107 116.497 267.912 116.497C269.323 116.497 271.146 116.497 273.17 116.497C283.072 116.292 298.469 114.627 299.871 102.664C300.003 101.452 300.003 100.228 299.871 99.0158C298.881 88.9702 276.71 80.047 267.868 80.047C266.741 79.9247 265.609 80.2186 264.661 80.8795C265.825 81.7797 266.94 82.751 268 83.7884C272.188 87.9039 274.458 92.3094 274.458 96.8832C274.458 97.1576 274.458 97.4288 274.458 97.697C274.454 97.7217 274.454 97.747 274.458 97.7718C274.458 97.9027 274.458 98.043 274.458 98.174C274.458 98.3049 274.458 98.4452 274.414 98.5855C274.313 99.3623 274.152 100.129 273.932 100.877C273.88 101.045 273.827 101.223 273.766 101.392C273.705 101.56 273.652 101.728 273.591 101.897C273.477 102.205 273.354 102.505 273.223 102.832C272.965 103.431 272.672 104.012 272.346 104.572L272.127 104.946C271.383 106.164 270.535 107.307 269.595 108.36C269.338 108.653 269.075 108.943 268.806 109.23C268.508 109.548 268.184 109.866 267.859 110.165L267.369 110.633L266.852 111.1C266.676 111.259 266.501 111.418 266.317 111.568L265.923 111.905L265.677 112.111C265.493 112.27 265.301 112.419 265.108 112.569C264.915 112.719 262.61 113.439 262.269 113.691C262.198 113.742 262.139 113.81 262.097 113.89C262.056 113.969 262.032 114.058 262.029 114.15C262.025 114.241 262.042 114.331 262.078 114.414C262.113 114.497 262.167 114.57 262.234 114.627Z" fill="#444444"/>
<path d="M35.803 112.793C35.8468 112.98 35.8906 113.168 35.9257 113.345C35.5839 113.093 35.2509 112.831 34.9267 112.569L34.3571 112.111L34.1117 111.905L33.7174 111.568C33.5333 111.418 33.3581 111.259 33.1828 111.1L32.6658 110.633L32.1751 110.165C31.8508 109.856 31.5266 109.538 31.2286 109.23C30.9307 108.921 30.6941 108.65 30.44 108.36C29.4995 107.307 28.6517 106.164 27.9074 104.946L27.6883 104.572C27.3625 104.012 27.0698 103.431 26.812 102.832C26.6806 102.533 26.5579 102.233 26.444 101.897C26.3826 101.728 26.3213 101.56 26.2687 101.392C26.2161 101.223 26.1548 101.045 26.1022 100.877C25.8825 100.129 25.7213 99.3623 25.6202 98.5855C25.6202 98.4452 25.6202 98.3142 25.6202 98.1739C25.6202 98.0336 25.6202 97.9027 25.6202 97.7717C25.624 97.747 25.624 97.7217 25.6202 97.6969C25.6202 97.4225 25.6202 97.1513 25.6202 96.8832C25.6202 92.3093 27.8899 87.9038 32.0787 83.7883C33.1382 82.7509 34.253 81.7797 35.4174 80.8794C36.1448 81.5154 36.2937 82.5162 36.0308 83.807C35.9607 84.1718 35.8643 84.574 35.7504 84.9949C35.4875 85.9303 35.1107 86.9778 34.7076 88.1096C33.5859 91.243 32.2101 95.0405 32.2101 99.0157C32.2101 99.3244 32.2101 99.6237 32.2101 99.9511C32.2101 100.278 32.2101 100.587 32.2802 100.886C32.7008 105.806 35.0406 109.997 35.803 112.793Z" fill="#444444"/>
</svg>
