<svg width="265" height="133" viewBox="0 0 265 133" fill="none" xmlns="http://www.w3.org/2000/svg">
<path d="M134.249 127.069C206.166 124.273 263.594 99.5812 262.518 71.9195C261.443 44.2578 202.271 24.1007 130.354 26.8974C58.4371 29.6941 1.00912 54.3855 2.08484 82.0473C3.16055 109.709 62.3326 129.866 134.249 127.069Z" fill="#ABABAB"/>
<path d="M134.112 123.164C206.029 120.367 263.457 95.6757 262.381 68.014C261.306 40.3522 202.133 20.1952 130.217 22.9919C58.3 25.7886 0.872038 50.48 1.94775 78.1418C3.02347 105.803 62.1955 125.961 134.112 123.164Z" fill="#DCDDDB"/>
<path d="M122.625 34.1763C113.646 42.0006 90.2762 27.3343 75.1045 32.5814C59.9327 37.8284 39.3631 41.6879 36.9963 56.3284C36.4355 59.5181 32.3535 80.895 41.9046 91.274C50.1417 100.268 54.9619 104.219 79.4768 105.023C103.992 105.826 140.634 108.854 147.049 106.163C153.464 103.472 192.266 106.222 200.59 96.9441C208.913 87.6661 231.45 84.8218 230.438 73.0599C229.425 61.298 216.435 43.5763 201.303 47.0881C186.171 50.6 172.971 39.5795 166.78 33.9795C160.588 28.3795 153.201 7.59342 122.625 34.1763Z" fill="#F9D885" stroke="#DBAC40" stroke-width="1.59" stroke-linecap="round" stroke-linejoin="round"/>
<path d="M64.1361 52.8972C64.1361 52.8972 75.2557 85.589 86.5208 80.578C97.7859 75.567 126.873 80.2894 148.503 82.4083C170.132 84.5272 166.938 77.3659 171.362 71.1058" stroke="#DBAC3E" stroke-width="1.59" stroke-linecap="round" stroke-linejoin="round"/>
<path d="M53.8682 83.4667C53.8682 83.4667 82.9525 98.9649 99.2476 99.7303C115.543 100.496 149.362 101.205 171.438 94.3563C189.951 88.6122 196.536 93.6123 202.679 87.2853" stroke="#DBAC3E" stroke-width="1.59" stroke-linecap="round" stroke-linejoin="round"/>
<path d="M104.149 40.7575C104.149 40.7575 139.252 73.4669 153.941 55.9396C168.63 38.4122 206.936 62.9506 204.38 70.4623C201.825 77.9739 182.002 88.149 169.613 90.1702" stroke="#DBAC3E" stroke-width="1.59" stroke-linecap="round" stroke-linejoin="round"/>
<path d="M77.3731 35.8185C77.3731 35.8185 54.8462 29.5499 53.1909 45.0655C51.5356 60.5811 45.0571 74.787 57.6376 79.8144C70.2181 84.8418 107.522 91.3898 112.937 89.0075" stroke="#DBAC3E" stroke-width="1.59" stroke-linecap="round" stroke-linejoin="round"/>
<path d="M208.039 51.4916C210.55 52.5588 212.706 54.3162 214.258 56.5599C215.81 58.8036 216.693 61.4414 216.806 64.167C217.143 73.6642 211.313 80.5078 205.111 81.7248" stroke="#DBAC3E" stroke-width="1.59" stroke-linecap="round" stroke-linejoin="round"/>
<path d="M87.2067 91.6365C87.2067 91.6365 131.544 96.7676 136.204 93.5603C140.864 90.353 160.563 93.1478 170.434 84.5804C177.099 78.9978 184.322 74.1165 191.987 70.0137" stroke="#DBAC3E" stroke-width="1.59" stroke-linecap="round" stroke-linejoin="round"/>
<path d="M45.0366 52.9886C45.0366 52.9886 38.7725 71.2244 45.3143 83.0355C51.8561 94.8467 65.772 99.4974 67.5388 99.5542C69.3056 99.6111 85.0047 102.06 85.0047 102.06" stroke="#DBAC3E" stroke-width="1.59" stroke-linecap="round" stroke-linejoin="round"/>
<path d="M137.572 18.3906C137.572 18.3906 142.908 18.6249 136.901 18.4686C130.894 18.3123 91.6545 25.0038 85.9947 27.0084C80.3348 29.013 43.7302 37.7139 41.4126 47.6787C39.095 57.6436 51.6003 74.2532 59.8029 70.9766C68.0055 67.7 93.9044 70.212 104.252 83.4078C114.601 96.6036 136.47 93.8841 142.919 84.3689C149.369 74.8537 185.609 82.5299 189.765 74.2498C193.921 65.9696 214.551 56.5827 211.643 49.5641C208.735 42.5455 196.887 39.3891 195.722 36.5652C194.558 33.7413 169.31 14.9258 137.572 18.3906Z" fill="#EAAB4D"/>
<path d="M80.7674 47.8147C67.6538 48.3124 66.8822 54.6033 71.5036 57.3889C76.125 60.1745 91.7029 65.7404 94.4628 63.1682C97.2226 60.596 100.833 56.0735 97.5 53.5722C94.167 51.0708 93.8889 47.2722 80.7674 47.8147Z" fill="#F8F2E8"/>
<path d="M150.832 55.8429C141.631 56.198 141.136 60.5876 144.332 62.5572C147.528 64.5267 158.497 68.4169 160.43 66.6108C162.363 64.8046 164.894 61.627 162.558 59.8892C160.221 58.1515 160.021 55.4857 150.832 55.8429Z" fill="#F8F2E8"/>
<path d="M106.212 25.4174C94.7932 25.8556 94.1304 30.2156 98.0976 32.1939C102.065 34.1722 115.632 37.9193 118.039 36.1043C120.447 34.2893 123.629 31.0876 120.739 29.345C117.85 27.6023 117.619 24.9773 106.212 25.4174Z" fill="#F8F2E8"/>
<path d="M170.475 40.6519C162.039 44.0721 161.127 48.6075 164.907 49.3529C168.687 50.0984 178.217 47.0784 183.713 47.3871C191.704 47.8693 185.94 41.283 182.984 40.4402C180.029 39.5975 178.91 37.2317 170.475 40.6519Z" fill="#F8F2E8"/>
<path d="M133.704 43.8664C129.659 48.3621 124.466 51.6726 118.683 53.4434C112.686 54.9452 106.404 54.8777 100.441 53.2472C104.487 48.7514 109.68 45.4409 115.463 43.6701C121.46 42.1683 127.742 42.2359 133.704 43.8664Z" fill="#385C2B"/>
<path d="M130.509 40.0621C130.509 40.0621 122.701 39.8431 117.633 35.2712C112.564 30.6994 112.149 23.6115 112.149 23.6115C112.149 23.6115 119.956 23.8305 125.011 28.4116C130.067 32.9926 130.509 40.0621 130.509 40.0621Z" fill="#385C2B"/>
<path d="M151.598 30.4216C150.832 30.4457 150.069 30.5156 149.311 30.631C152.009 28.2681 153.972 25.1823 154.971 21.7384C151.165 22.2223 147.55 23.6904 144.484 25.9978C141.73 28.3552 139.718 31.4596 138.69 34.936L138.678 35.0031L138.767 35.0189C142.693 37.437 147.211 38.7226 151.821 38.7333C156.474 38.4436 160.955 36.8715 164.769 34.1913C160.814 31.7357 156.253 30.4303 151.598 30.4216Z" fill="#385C2B"/>
</svg>
