<svg width="117" height="28" viewBox="0 0 117 28" fill="none" xmlns="http://www.w3.org/2000/svg">
<path d="M11.5199 7.14678V7.44191C11.5199 7.94333 11.4913 8.41618 11.431 8.86048C14.5093 8.88269 16.4452 10.0156 17.2894 12.3958C17.9241 14.1857 16.6007 16.0676 14.6998 16.0676C13.5287 16.0676 12.5132 15.3154 12.107 14.2206C11.7452 13.2526 10.9677 12.7512 9.89504 12.7893C8.15278 15.1821 5.31565 16.3627 2.59912 16.3627C1.15199 16.3627 0 15.5344 0 14.2079C0 12.8813 0.739431 12.0816 1.91998 11.9324C4.4588 11.6373 5.99478 9.86331 5.99478 7.44191V7.14678H2.30398C0.917148 7.14678 0.149156 5.96622 0.149156 4.90309C0.149156 3.83996 0.799728 2.59912 2.30398 2.59912H5.9091V2.57055C5.9091 0.799728 6.94367 0 8.77479 0C10.6059 0 11.669 0.82829 11.669 2.57055V2.59912H15.3916C16.899 2.59912 17.5464 3.83996 17.5464 4.90309C17.5464 5.96622 16.7784 7.14678 15.3916 7.14678H11.5231H11.5199ZM7.59107 28C3.48453 28 1.59628 25.7849 1.59628 22.6843C1.59628 19.5838 3.4877 17.3084 7.59107 17.3084H20.9421C24.9883 17.3084 26.9369 19.5521 26.9369 22.6843C26.9369 25.8166 24.9883 28 20.9421 28H7.59107ZM19.3458 24.0109C20.5581 24.0109 20.9421 23.4206 20.9421 22.6812C20.9421 21.9417 20.5581 21.4118 19.3458 21.4118H9.18735C7.97506 21.4118 7.59107 21.9449 7.59107 22.6812C7.59107 23.4174 7.97506 24.0109 9.18735 24.0109H19.349H19.3458ZM20.7644 11.2216H19.0792C17.3084 11.2216 16.7149 10.1584 16.7149 8.94616C16.7149 7.73388 17.2767 6.67075 19.0792 6.67075H20.7644V3.03706C20.7644 1.14564 22.1512 0.17137 23.6872 0.17137C25.2232 0.17137 26.6417 1.1742 26.6417 3.03706V13.3605C26.6417 14.9822 25.3247 16.2992 23.703 16.2992C22.0814 16.2992 20.7644 14.9822 20.7644 13.3605V11.2184V11.2216Z" fill="#E35D3C"/>
<path d="M34.4107 17.2796C31.5736 17.2796 30.2153 16.2165 30.2153 13.3508V3.9286C30.2153 1.91976 31.4562 1.0629 33.1096 1.0629C34.763 1.0629 35.9753 1.94832 35.9753 3.9286V12.0211C35.9753 12.6717 36.1213 12.7891 36.7718 12.7891H46.432C48.1743 12.7891 48.7963 13.8236 48.7963 15.0645C48.7963 16.3053 48.1457 17.2796 46.432 17.2796H34.4107ZM35.8293 27.9141C32.5225 27.9141 31.6339 26.7621 31.6339 23.6013V21.2687C31.6339 19.2599 33.0207 18.403 34.6773 18.403C36.3339 18.403 37.6319 19.2884 37.6319 21.2687V22.5984C37.6319 23.249 37.781 23.3379 38.4284 23.3379H54.4674C56.27 23.3379 56.9491 24.4296 56.9491 25.6133C56.9491 26.797 56.2414 27.9173 54.4674 27.9173H35.8293V27.9141ZM50.3323 11.7577H44.9563C43.5663 11.7577 42.8586 10.9611 42.8586 9.74884C42.8586 8.53655 43.4489 7.74 44.9563 7.74H50.3323V6.35317H44.9563C43.5663 6.35317 42.8586 5.58517 42.8586 4.37289C42.8586 3.1606 43.4489 2.33549 44.9563 2.33549H50.3926C50.7163 0.916922 51.9286 0.180664 53.2583 0.180664C54.7657 0.180664 56.1811 1.1835 56.1811 3.04636V18.1396C56.1811 19.755 54.8704 21.0625 53.2583 21.0625C51.643 21.0625 50.3355 19.7518 50.3355 18.1396V11.7609L50.3323 11.7577Z" fill="#E35D3C"/>
<path d="M69.6778 22.5382V18.5491C69.6778 16.6291 71.1249 15.8326 72.6895 15.8326C74.254 15.8326 75.7011 16.6609 75.7011 18.5491V22.5382H84.0316C85.8342 22.5382 86.5133 23.7505 86.5133 24.9311C86.5133 26.1116 85.8056 27.3239 84.0316 27.3239H61.3473C59.5765 27.3239 58.8656 26.1433 58.8656 24.9311C58.8656 23.7188 59.5447 22.5382 61.3473 22.5382H69.6778ZM75.2886 6.29295C79.2174 6.41037 83.2605 8.60328 85.0345 13.1795C85.7993 15.1534 84.3617 17.2829 82.2449 17.2829H82.2037C80.9565 17.2829 79.8711 16.499 79.4015 15.347C78.2907 12.6178 75.8439 11.031 72.956 11.0818C70.2681 14.7155 66.0155 17.1654 62.1439 17.2543C60.6967 17.2829 59.4844 16.426 59.3385 14.9789C59.1893 13.5603 59.9573 12.4083 61.4647 12.0846C65.3935 11.2563 68.9384 8.27323 69.5572 3.25272C69.792 1.39304 71.2106 0.447325 72.864 0.593307C74.5777 0.710728 75.7297 1.86272 75.6694 3.72557C75.6408 4.61099 75.5202 5.46784 75.2854 6.29613L75.2886 6.29295Z" fill="#E35D3C"/>
<path d="M113.511 22.3319C115.342 22.3319 116.049 23.633 116.049 24.8422C116.049 26.0513 115.31 27.3238 113.511 27.3238H90.9436C89.141 27.3238 88.4048 26.083 88.4048 24.8422C88.4048 23.6013 89.1125 22.3319 90.9436 22.3319H113.511ZM104.796 6.44207C108.801 6.53727 112.882 8.78095 114.628 13.5508C115.338 15.493 113.856 17.5462 111.787 17.5462C110.521 17.5462 109.417 16.7401 108.96 15.5596C107.868 12.7479 105.374 11.1262 102.46 11.2246C99.7723 14.9154 95.5484 17.4574 91.6799 17.5462C90.2327 17.5748 89.0204 16.7179 88.8745 15.2708C88.7253 13.8522 89.4933 12.7003 91.0007 12.3766C94.901 11.5197 98.4744 8.21289 99.0932 3.2495C99.328 1.38982 100.778 0.47267 102.432 0.59009C104.145 0.739246 105.269 1.8595 105.209 3.72236C105.18 4.63951 105.031 5.55348 104.796 6.43889V6.44207Z" fill="#E35D3C"/>
</svg>
