<svg width="253" height="295" viewBox="0 0 253 295" fill="none" xmlns="http://www.w3.org/2000/svg">
<path d="M252.429 168.286C252.429 237.992 195.921 294.5 126.214 294.5C56.5081 294.5 0 237.992 0 168.286C0 98.5795 56.5081 42.0714 126.214 42.0714C195.921 42.0714 252.429 98.5795 252.429 168.286Z" fill="#BEBEBE"/>
<path d="M229.48 168.286C229.48 225.318 183.247 271.552 126.214 271.552C69.1819 271.552 22.948 225.318 22.948 168.286C22.948 111.253 69.1819 65.0195 126.214 65.0195C183.247 65.0195 229.48 111.253 229.48 168.286Z" fill="white"/>
<path d="M209.021 216.094C217.412 201.56 221.83 185.073 221.831 168.291C221.832 151.508 217.416 135.021 209.026 120.486C200.636 105.951 188.569 93.8801 174.036 85.4866C159.503 77.093 143.017 72.6723 126.234 72.6688L126.214 168.286L209.021 216.094Z" fill="#E9E9E9"/>
<path d="M107.091 30.5974C107.091 26.3728 110.516 22.9481 114.74 22.9481H137.688C141.913 22.9481 145.338 26.3728 145.338 30.5974V42.0714C145.338 46.2961 141.913 49.7208 137.688 49.7208H114.74C110.516 49.7208 107.091 46.2961 107.091 42.0714V30.5974Z" fill="#BEBEBE"/>
<path d="M122.39 15.2987C122.39 13.1864 124.102 11.474 126.214 11.474C128.327 11.474 130.039 13.1864 130.039 15.2987V26.7727C130.039 28.885 128.327 30.5974 126.214 30.5974C124.102 30.5974 122.39 28.885 122.39 26.7727V15.2987Z" fill="#BEBEBE"/>
<path d="M35.6586 72.4726C33.6921 70.5061 33.6921 67.3177 35.6586 65.3511C37.6251 63.3846 40.8135 63.3846 42.78 65.3511L49.1809 71.752C51.1474 73.7185 51.1474 76.9069 49.1809 78.8734C47.2144 80.8399 44.026 80.8399 42.0595 78.8734L35.6586 72.4726Z" fill="#BEBEBE"/>
<path d="M133.864 -3.34364e-07C138.088 -1.497e-07 141.513 3.42473 141.513 7.64935C141.513 11.874 138.088 15.2987 133.864 15.2987L118.565 15.2987C114.34 15.2987 110.916 11.874 110.916 7.64935C110.916 3.42473 114.34 -1.18776e-06 118.565 -1.00309e-06L133.864 -3.34364e-07Z" fill="#BEBEBE"/>
<path d="M31.7249 52.8347C34.7121 49.8475 39.5554 49.8475 42.5427 52.8348L42.6545 52.9465C45.6417 55.9338 45.6417 60.7771 42.6545 63.7643L34.0718 72.347C31.0846 75.3342 26.2413 75.3342 23.254 72.347L23.1423 72.2352C20.155 69.2479 20.155 64.4046 23.1423 61.4174L31.7249 52.8347Z" fill="#BEBEBE"/>
<path fill-rule="evenodd" clip-rule="evenodd" d="M128.126 70.7565C129.183 70.7565 130.039 71.6127 130.039 72.6688L130.039 87.9675C130.039 89.0237 129.183 89.8798 128.126 89.8798C127.07 89.8798 126.214 89.0237 126.214 87.9675L126.214 72.6688C126.214 71.6127 127.07 70.7565 128.126 70.7565Z" fill="#405368"/>
<path fill-rule="evenodd" clip-rule="evenodd" d="M128.126 246.692C129.183 246.692 130.039 247.548 130.039 248.604L130.039 263.903C130.039 264.959 129.183 265.815 128.126 265.815C127.07 265.815 126.214 264.959 126.214 263.903L126.214 248.604C126.214 247.548 127.07 246.692 128.126 246.692Z" fill="#405368"/>
<path fill-rule="evenodd" clip-rule="evenodd" d="M223.743 170.198C223.743 171.254 222.887 172.11 221.831 172.11L206.532 172.11C205.476 172.11 204.62 171.254 204.62 170.198C204.62 169.142 205.476 168.286 206.532 168.286L221.831 168.286C222.887 168.286 223.743 169.142 223.743 170.198Z" fill="#405368"/>
<path fill-rule="evenodd" clip-rule="evenodd" d="M47.8085 170.198C47.8085 171.254 46.9523 172.11 45.8961 172.11L30.5974 172.11C29.5413 172.11 28.6851 171.254 28.6851 170.198C28.6851 169.142 29.5413 168.286 30.5974 168.286L45.8961 168.286C46.9523 168.286 47.8085 169.142 47.8085 170.198Z" fill="#405368"/>
<path fill-rule="evenodd" clip-rule="evenodd" d="M53.2203 128.826C52.6923 129.741 51.5227 130.054 50.608 129.526L40.6712 123.789C39.7566 123.261 39.4432 122.092 39.9713 121.177C40.4993 120.262 41.6689 119.949 42.5836 120.477L52.5204 126.214C53.435 126.742 53.7484 127.912 53.2203 128.826Z" fill="#405368"/>
<path fill-rule="evenodd" clip-rule="evenodd" d="M196.527 209.401C197.055 208.486 198.225 208.173 199.14 208.701L209.076 214.438C209.991 214.966 210.304 216.136 209.776 217.05C209.248 217.965 208.079 218.279 207.164 217.75L197.227 212.013C196.313 211.485 195.999 210.316 196.527 209.401Z" fill="#405368"/>
<path fill-rule="evenodd" clip-rule="evenodd" d="M82.4179 97.2043C81.5032 97.7324 80.3336 97.419 79.8055 96.5043L74.0685 86.5675C73.5405 85.6529 73.8538 84.4833 74.7685 83.9552C75.6832 83.4272 76.8527 83.7405 77.3808 84.6552L83.1178 94.592C83.6459 95.5066 83.3325 96.6762 82.4179 97.2043Z" fill="#405368"/>
<path fill-rule="evenodd" clip-rule="evenodd" d="M171.155 237.199C172.069 236.67 173.239 236.984 173.767 237.899L179.504 247.835C180.032 248.75 179.719 249.92 178.804 250.448C177.889 250.976 176.72 250.662 176.192 249.748L170.455 239.811C169.927 238.896 170.24 237.727 171.155 237.199Z" fill="#405368"/>
<path fill-rule="evenodd" clip-rule="evenodd" d="M171.154 103.385C170.239 102.857 169.926 101.687 170.454 100.773L176.191 90.836C176.719 89.9213 177.889 89.6079 178.803 90.136C179.718 90.6641 180.031 91.8336 179.503 92.7483L173.766 102.685C173.238 103.6 172.069 103.913 171.154 103.385Z" fill="#405368"/>
<path fill-rule="evenodd" clip-rule="evenodd" d="M198.951 132.583C198.423 131.668 198.737 130.499 199.651 129.971L209.588 124.234C210.503 123.706 211.672 124.019 212.2 124.934C212.728 125.848 212.415 127.018 211.5 127.546L201.564 133.283C200.649 133.811 199.479 133.498 198.951 132.583Z" fill="#405368"/>
<path fill-rule="evenodd" clip-rule="evenodd" d="M85.287 234.774C86.2016 235.302 86.515 236.472 85.9869 237.387L80.2499 247.324C79.7219 248.238 78.5523 248.552 77.6376 248.023C76.723 247.495 76.4096 246.326 76.9377 245.411L82.6747 235.474C83.2028 234.56 84.3723 234.246 85.287 234.774Z" fill="#405368"/>
<path fill-rule="evenodd" clip-rule="evenodd" d="M57.4896 205.576C58.0177 206.491 57.7043 207.66 56.7897 208.188L46.8529 213.925C45.9382 214.454 44.7686 214.14 44.2406 213.226C43.7125 212.311 44.0259 211.141 44.9405 210.613L54.8773 204.876C55.792 204.348 56.9616 204.662 57.4896 205.576Z" fill="#405368"/>
<path d="M140.179 158.11L208.445 216.094L124.575 185.136C115.98 182.576 103.182 173.876 111.504 159.461C119.826 145.047 133.664 151.946 140.179 158.11Z" fill="#E35D3C"/>
<path d="M137.688 168.286C137.688 174.623 132.551 179.76 126.214 179.76C119.877 179.76 114.74 174.623 114.74 168.286C114.74 161.949 119.877 156.812 126.214 156.812C132.551 156.812 137.688 161.949 137.688 168.286Z" fill="#FFFEFF"/>
</svg>
